<svg xmlns="http://www.w3.org/2000/svg" viewBox="0 0 100.28 100.24"><defs><style>.cls-1{fill:#fff;stroke-miterlimit:10;}.cls-1,.cls-2{stroke:#000;}.cls-2{fill:none;stroke-linecap:round;stroke-linejoin:round;}</style></defs><title>mindal_1</title><g id="Layer_2" data-name="Layer 2"><g id="Layer_1-2" data-name="Layer 1"><path class="cls-1" d="M70.34,73.79c23.14-22,36.6-59.35,25.46-70C85-6.41,51.55,8.5,31.34,27.79,9.2,48.92-6.76,84.57,3.87,95.75,14.19,106.61,49.12,94,70.34,73.79Z"/><path class="cls-2" d="M12.34,76.79a221.47,221.47,0,0,1,61-66"/><path class="cls-2" d="M25.34,79.79a115.08,115.08,0,0,0,44-34,114.11,114.11,0,0,0,19-36"/><path class="cls-2" d="M9.89,90.47A267.14,267.14,0,0,1,66.38,32.85"/><path class="cls-2" d="M59.5,71A99.27,99.27,0,0,0,82.9,43.52a98.52,98.52,0,0,0,10.35-25.8"/></g></g></svg>