<svg xmlns="http://www.w3.org/2000/svg" viewBox="0 0 62.8 59.62"><defs><style>.cls-1{fill:#fff;stroke-miterlimit:10;}.cls-1,.cls-2{stroke:#000;stroke-width:0.5px;}.cls-2{fill:none;stroke-linecap:round;stroke-linejoin:round;}</style></defs><title>almond_3</title><g id="Layer_2" data-name="Layer 2"><g id="Layer_1-2" data-name="Layer 1"><path class="cls-1" d="M61,14.9a8.11,8.11,0,0,1,.12-6.25,7.05,7.05,0,0,1-2.26-4.46,7.92,7.92,0,0,1-1.11.09A6.47,6.47,0,0,1,51.61.61a7.53,7.53,0,0,1-1.28.11A7.41,7.41,0,0,1,47.8.3a5.51,5.51,0,0,1-4.54,2.11A5.63,5.63,0,0,1,39.34,1a5.47,5.47,0,0,1-5,2.7,5.47,5.47,0,0,1-4.76-2.42,78.34,78.34,0,0,0-7,5.91C6.56,22.5-5,48.36,2.7,56.48c7.48,7.87,32.82-1.29,48.21-15.94a72.44,72.44,0,0,0,9.66-11.41c-1.75-2.19-1.2-6.07,1.63-7.2C59.7,20.62,59.29,17,61,14.9Z"/><path class="cls-2" d="M8.84,42.72A160.82,160.82,0,0,1,41.29,4.13"/><path class="cls-2" d="M18.27,44.9a84.15,84.15,0,0,0,40-37.25"/><path class="cls-2" d="M7.06,52.64a194.25,194.25,0,0,1,41-41.8"/><path class="cls-2" d="M43.05,38.48A72.06,72.06,0,0,0,59.37,19.7"/></g></g></svg>