<svg xmlns="http://www.w3.org/2000/svg" viewBox="0 0 72.51 72.5"><defs><style>.cls-1{fill:#fff;stroke-miterlimit:10;}.cls-1,.cls-2{stroke:#000;stroke-width:0.5px;}.cls-2{fill:none;stroke-linecap:round;stroke-linejoin:round;}</style></defs><title>almond_1</title><g id="Layer_2" data-name="Layer 2"><g id="Layer_1-2" data-name="Layer 1"><path class="cls-1" d="M64.32,26.27h.23c-1-2.66.35-6.3,4-6.3a4.39,4.39,0,0,1,2.25.59c2.17-7.9,2-14.64-1.46-17.9-7.81-7.44-32.1,3.39-46.77,17.38C6.56,35.38-5,61.24,2.7,69.36c7.48,7.87,32.82-1.29,48.21-15.94A72.44,72.44,0,0,0,60.57,42c-1.75-2.19-1.2-6.07,1.63-7.19C58.62,32.93,59.32,26.27,64.32,26.27Z"/><path class="cls-2" d="M8.84,55.6A160.34,160.34,0,0,1,53.09,7.72"/><path class="cls-2" d="M18.27,57.78A83.66,83.66,0,0,0,50.19,33.11,82.57,82.57,0,0,0,64,7"/><path class="cls-2" d="M7.06,65.52a194.25,194.25,0,0,1,41-41.8"/><path class="cls-2" d="M65.26,20.25a70.57,70.57,0,0,0,2.28-7.51"/><path class="cls-2" d="M43.05,51.36A71.9,71.9,0,0,0,59.37,32.58"/></g></g></svg>