<svg xmlns="http://www.w3.org/2000/svg" viewBox="0 0 62.8 50.84"><defs><style>.cls-1{fill:#fff;stroke-miterlimit:10;}.cls-1,.cls-2{stroke:#000;stroke-width:0.5px;}.cls-2{fill:none;stroke-linecap:round;stroke-linejoin:round;}</style></defs><title>almond_5</title><g id="Layer_2" data-name="Layer 2"><g id="Layer_1-2" data-name="Layer 1"><path class="cls-1" d="M62.2,13.16a4.46,4.46,0,0,1-.5-.35,11.29,11.29,0,0,1-1.18.29,11,11,0,0,1-3.35.5,9.49,9.49,0,0,1-8.94-5.36,8.62,8.62,0,0,1-.91-.18,9.5,9.5,0,0,1-8.76,5,9.51,9.51,0,0,1-9.46-6.6,9.43,9.43,0,0,1-8.54-6C5.59,15.93-4.68,39.93,2.7,47.7,5.09,50.22,9.33,51,14.47,50.4c-1.13-5.62,1.82-12.19,8.82-12.79-.37-5.49,3-11.28,10.08-11.28a9.93,9.93,0,0,1,6.12,1.93A9.81,9.81,0,0,1,46,26.06a9.66,9.66,0,0,1,7.49,3.16,76.25,76.25,0,0,0,7.13-8.87C58.82,18.16,59.37,14.28,62.2,13.16Z"/><path class="cls-2" d="M8.84,33.94A161.26,161.26,0,0,1,28.17,8.1"/><path class="cls-2" d="M36.14,25.33a85.41,85.41,0,0,0,13.25-13"/><path class="cls-2" d="M18.27,36.12c1.24-.55,2.47-1.13,3.68-1.74"/><path class="cls-2" d="M7.06,43.86a193.44,193.44,0,0,1,26.7-30"/><path class="cls-2" d="M48.52,24.78a71.46,71.46,0,0,0,8.26-9.86"/></g></g></svg>