<svg xmlns="http://www.w3.org/2000/svg" viewBox="0 0 23.05 17.4"><defs><style>.cls-1{fill:#fff;stroke-miterlimit:10;}.cls-1,.cls-2{stroke:#000;stroke-width:0.5px;}.cls-2{fill:none;stroke-linecap:round;stroke-linejoin:round;}</style></defs><title>almond_7</title><g id="Layer_2" data-name="Layer 2"><g id="Layer_1-2" data-name="Layer 1"><path class="cls-1" d="M22.59,8.67A10,10,0,0,1,18.8,3a10.89,10.89,0,0,1-3.69.62A9.63,9.63,0,0,1,7.52.32,9.71,9.71,0,0,1,3.61,1.6C6.15,6.26,5.11,13,.51,16a5.17,5.17,0,0,1,1.58,1.11,6,6,0,0,1,3.17-.84,6.34,6.34,0,0,1,2.43.46,9.62,9.62,0,0,1,7.42-3.1,10,10,0,0,1,6.12,1.92,9.59,9.59,0,0,1,1.48-1A7,7,0,0,1,22.59,8.67Z"/><path class="cls-2" d="M17.89,12.6c1-.81,2-1.64,3-2.49"/><path class="cls-2" d="M6.07,10.37c1.82-1.91,3.69-3.78,5.59-5.61"/></g></g></svg>