<svg xmlns="http://www.w3.org/2000/svg" viewBox="0 0 36.56 33.94"><defs><style>.cls-1{fill:#fff;stroke-miterlimit:10;}.cls-1,.cls-2{stroke:#000;stroke-width:0.5px;}.cls-2{fill:none;stroke-linecap:round;stroke-linejoin:round;}</style></defs><title>almond_6</title><g id="Layer_2" data-name="Layer 2"><g id="Layer_1-2" data-name="Layer 1"><path class="cls-1" d="M36.15,3.88A9.68,9.68,0,0,1,33.66.71c-.31,0-.62-.1-.91-.17a9.49,9.49,0,0,1-8.75,5A9.48,9.48,0,0,1,15.28.59a9.41,9.41,0,0,1-8,6.22c3.15,5.76.82,14.64-6.95,15.82a12,12,0,0,1,0,7.84,10,10,0,0,1,1.79,3,9.38,9.38,0,0,1,6.63-3.36c-.36-5.49,3-11.28,10.08-11.28a9.93,9.93,0,0,1,6.12,1.92,9.84,9.84,0,0,1,6.47-2.2,11.78,11.78,0,0,1,2.35.23C30.73,14.18,31.54,7.14,36.15,3.88Z"/><path class="cls-2" d="M21.57,17.8A85,85,0,0,0,31.15,9"/><path class="cls-2" d="M3.7,28.59c1.24-.55,2.47-1.13,3.68-1.74"/><path class="cls-2" d="M9.75,15.58q4.56-4.77,9.44-9.22"/></g></g></svg>