<svg xmlns="http://www.w3.org/2000/svg" viewBox="0 0 62.8 50.84"><defs><style>.cls-1{fill:#fff;stroke-miterlimit:10;}.cls-1,.cls-2{stroke:#000;stroke-width:0.5px;}.cls-2{fill:none;stroke-linecap:round;stroke-linejoin:round;}</style></defs><title>almond_4</title><g id="Layer_2" data-name="Layer 2"><g id="Layer_1-2" data-name="Layer 1"><path class="cls-1" d="M60.52,13.1a11,11,0,0,1-3.35.5,9.49,9.49,0,0,1-8.94-5.36,8.62,8.62,0,0,1-.91-.18,9.5,9.5,0,0,1-8.76,5,9.51,9.51,0,0,1-9.46-6.6,9.43,9.43,0,0,1-8.54-6C5.59,15.93-4.68,39.93,2.7,47.7s32.82-1.29,48.21-15.93a72.52,72.52,0,0,0,9.66-11.42c-1.75-2.19-1.2-6.07,1.63-7.19a4.46,4.46,0,0,1-.5-.35A11.29,11.29,0,0,1,60.52,13.1Z"/><path class="cls-2" d="M8.84,33.94A161.26,161.26,0,0,1,28.17,8.1"/><path class="cls-2" d="M18.27,36.12A84.56,84.56,0,0,0,49.39,12.31"/><path class="cls-2" d="M7.06,43.86a193.44,193.44,0,0,1,26.7-30"/><path class="cls-2" d="M43.05,29.7A72.42,72.42,0,0,0,56.78,14.92"/></g></g></svg>