<svg xmlns="http://www.w3.org/2000/svg" viewBox="0 0 72.51 72.5"><defs><style>.cls-1{fill:#fff;stroke-miterlimit:10;}.cls-1,.cls-2{stroke:#000;stroke-width:0.5px;}.cls-2{fill:none;stroke-linecap:round;stroke-linejoin:round;}</style></defs><title>almond_2</title><g id="Layer_2" data-name="Layer 2"><g id="Layer_1-2" data-name="Layer 1"><path class="cls-1" d="M69.39,2.66C66.67.08,62-.29,56.36.9a5.68,5.68,0,0,1-5.81,5.84,6.51,6.51,0,0,1-2.1-.34c1.7,3.57,0,8.89-5.19,8.89a5.59,5.59,0,0,1-3.92-1.44,5.48,5.48,0,0,1-5,2.71,5.47,5.47,0,0,1-4.76-2.42,78.34,78.34,0,0,0-7,5.91C6.56,35.37-5,61.24,2.7,69.35c7.48,7.88,32.82-1.28,48.21-15.93A72.44,72.44,0,0,0,60.57,42c-1.75-2.19-1.2-6.07,1.63-7.2-3.58-1.89-2.88-8.54,2.12-8.54h.23c-1-2.66.35-6.3,4-6.3a4.39,4.39,0,0,1,2.25.59C73,12.67,72.81,5.92,69.39,2.66Z"/><path class="cls-2" d="M8.84,55.6A160.82,160.82,0,0,1,41.29,17"/><path class="cls-2" d="M18.27,57.77A83.51,83.51,0,0,0,50.19,33.11,82.57,82.57,0,0,0,64,7"/><path class="cls-2" d="M7.06,65.52a193.65,193.65,0,0,1,41-41.8"/><path class="cls-2" d="M65.26,20.25a70.57,70.57,0,0,0,2.28-7.51"/><path class="cls-2" d="M43.05,51.36A72.06,72.06,0,0,0,59.37,32.58"/></g></g></svg>