<svg xmlns="http://www.w3.org/2000/svg" viewBox="0 0 16.77 12.09"><defs><style>.cls-1{fill:#fff;stroke:#000;stroke-miterlimit:10;stroke-width:0.5px;}</style></defs><title>almond_8</title><g id="Layer_2" data-name="Layer 2"><g id="Layer_1-2" data-name="Layer 1"><path class="cls-1" d="M11,4.38a6.63,6.63,0,0,1-1.27.47c.14.7.3,1.4.46,2.1a6.58,6.58,0,0,1,.94.61,8.93,8.93,0,0,1,1.48-1A6.32,6.32,0,0,1,12,4.79,2.77,2.77,0,0,1,11,4.38Z"/><path class="cls-1" d="M2.71,3.44H2.55a3.53,3.53,0,0,1-.67.07A3,3,0,0,1,.64,3.25c.45.74,1.41,2.18.53,1.09A8.88,8.88,0,0,1,2.21,6,11.16,11.16,0,0,1,4,5.7c-.17-.79-.32-1.59-.44-2.38A3.23,3.23,0,0,1,2.71,3.44Z"/><path class="cls-1" d="M14,2.88l.15,0a2.83,2.83,0,0,1,.6-.31A2.89,2.89,0,0,1,16,2.33c-.68-.53-2.09-1.55-.87-.83A8.75,8.75,0,0,1,13.55.32,11.25,11.25,0,0,1,12,1.21c.44.68.85,1.38,1.24,2.08A3,3,0,0,1,14,2.88Z"/><path class="cls-1" d="M7.14,11.26a2.77,2.77,0,0,1,.3,0q.15-.34.33-.69A6.26,6.26,0,0,1,6.32,9.43a2.56,2.56,0,0,1-1.09.22,6,6,0,0,1-.81,1.09c.34.35.7.69,1,1A2.81,2.81,0,0,1,7.14,11.26Z"/></g></g></svg>