<svg xmlns="http://www.w3.org/2000/svg" viewBox="0 0 162.35 140.01"><defs><style>.cls-1{fill:#fff;stroke:#000;stroke-miterlimit:10;stroke-width:2px;}</style></defs><title>coco_5</title><g id="Layer_2" data-name="Layer 2"><g id="Layer_1-2" data-name="Layer 1"><path class="cls-1" d="M85.69,138.82C50,141.31,6.44,119.15,1.46,80S32.93,7.79,68.36,2c42.48-7,91.43,24,93,64.93C162.72,104.36,124,136.14,85.69,138.82Z"/><path d="M44.89,14.17a63.66,63.66,0,0,0-8.51,24.59,1,1,0,0,0,1,1,1,1,0,0,0,1-1,61.25,61.25,0,0,1,8.24-23.58,1,1,0,0,0-1.73-1Z"/><path d="M33.64,26.93,31.83,31.7a1,1,0,0,0,.7,1.23,1,1,0,0,0,1.23-.7l1.81-4.77a1,1,0,0,0-.7-1.23,1,1,0,0,0-1.23.7Z"/><path d="M45.69,100.14l-4.5-2.4a1,1,0,1,0-1,1.72l4.5,2.41a1,1,0,0,0,1-1.73Z"/><path d="M100.69,127.14l-4.5-2.4a1,1,0,1,0-1,1.72l4.5,2.41a1,1,0,0,0,1-1.73Z"/><path d="M27.16,51.41a4.75,4.75,0,0,1,8.41,3.44c-.08,1.29,1.92,1.28,2,0A6.75,6.75,0,0,0,25.75,50c-.84,1,.57,2.39,1.41,1.42Z"/><path d="M35.69,86.64a4.75,4.75,0,0,1,8.4,3.45c-.08,1.28,1.92,1.28,2,0a6.74,6.74,0,0,0-11.82-4.86c-.84,1,.57,2.38,1.42,1.41Z"/><path d="M16.11,55.8c.77,3.59,5.91,5,8.45,2.4a1,1,0,0,0,0-1.42,1,1,0,0,0-1.42,0L23,57c-.18.18.1,0-.06.05a3.52,3.52,0,0,1-.38.24c-.05,0-.35.15-.09.05l-.21.07a3,3,0,0,1-.43.12c-.06,0-.38,0-.1,0l-.22,0H21l-.3,0c.17,0,.08,0,0,0l-.48-.11-.47-.16c.24.08,0,0,0,0a1,1,0,0,1-.23-.12c-.15-.08-.28-.17-.42-.26s.15.14,0,0l-.2-.17c-.11-.11-.22-.23-.32-.35s.08.14,0,0L18.32,56l-.12-.23c-.1-.18.06.18,0,0s-.1-.34-.14-.51a1,1,0,1,0-1.93.53Z"/><path d="M45.12,123.63c1.37,5.43,7.66,9,13.06,7.79A7.62,7.62,0,0,0,62,129.24c.89-.94-.53-2.36-1.41-1.42-3.19,3.38-8.93,1.69-11.73-1.33a7.74,7.74,0,0,1-1.85-3.39,1,1,0,0,0-1.93.53Z"/><path d="M28.06,67.47a55.65,55.65,0,0,1,1.5,13.36,1,1,0,0,0,2,0A57.62,57.62,0,0,0,30,66.93c-.3-1.25-2.23-.72-1.92.54Z"/><path d="M46.06,106.7a55.28,55.28,0,0,1,1.5,13.37,1,1,0,0,0,2,0A57.56,57.56,0,0,0,48,106.17c-.3-1.25-2.23-.72-1.93.53Z"/><path d="M78.62,130.72a55.39,55.39,0,0,1-10.44-8.5c-.9-.92-2.31.49-1.42,1.42a57.36,57.36,0,0,0,10.85,8.8c1.1.69,2.1-1,1-1.72Z"/><path d="M20.07,77.64l-3.47,17c-.26,1.26,1.67,1.8,1.93.54l3.47-17c.25-1.26-1.68-1.79-1.93-.53Z"/><path d="M22,38.18a14.45,14.45,0,0,0-4.44,8,1,1,0,0,0,.7,1.23,1,1,0,0,0,1.23-.7A12.53,12.53,0,0,1,23.4,39.6,1,1,0,1,0,22,38.18Z"/><path d="M31.33,113.41a14.31,14.31,0,0,0-4.43,8,1,1,0,0,0,.69,1.23,1,1,0,0,0,1.23-.7,12.61,12.61,0,0,1,3.92-7.1,1,1,0,0,0-1.41-1.41Z"/><path d="M14.74,62.58A9.59,9.59,0,0,0,11.69,75c.63,1.13,2.36.12,1.73-1a7.53,7.53,0,0,1,2.33-9.65c1.07-.7.07-2.44-1-1.73Z"/><path d="M32.09,92.27a28.93,28.93,0,0,0-6,11.56,1,1,0,0,0,1.93.53,26.54,26.54,0,0,1,5.5-10.67,1,1,0,0,0,0-1.42,1,1,0,0,0-1.42,0Z"/><path d="M42,64.61a48.45,48.45,0,0,0,7.41-11.56,1,1,0,0,0-.36-1.37A1,1,0,0,0,47.7,52,46.9,46.9,0,0,1,40.61,63.2a1,1,0,0,0,0,1.41,1,1,0,0,0,1.41,0Z"/><path d="M45,45.2l4.51,2.38a1,1,0,1,0,1-1.72L46,43.47a1,1,0,0,0-1,1.73Z"/><path d="M65.73,96.85a4.74,4.74,0,0,1-8.42-3.4c.07-1.29-1.93-1.28-2,0a6.74,6.74,0,0,0,11.83,4.82,1,1,0,0,0,0-1.42,1,1,0,0,0-1.41,0Z"/><path d="M64.29,113.87a1.3,1.3,0,0,0,1-.59,1.5,1.5,0,0,0,.19-.83,3.8,3.8,0,0,0-.58-1.66,8,8,0,0,0-2.11-2.37,1,1,0,0,0-.77-.1,1,1,0,0,0-.6.46,1,1,0,0,0-.1.77,1.17,1.17,0,0,0,.46.59l-.09-.07s.06.05.08.07l.16.13.31.31c.11.11.21.23.32.35l.15.18.07.1,0,0a6.78,6.78,0,0,1,.5.77l.12.23s.08.17,0,0,0,0,0,0a2.77,2.77,0,0,1,.12.41l0-.26a1.11,1.11,0,0,1,0,.26l0-.27a.13.13,0,0,1,0,.06l.08-.19c0,.06,0,0,0-.06a1,1,0,0,1,.22-.2c-.07,0,.27-.09.15-.07l.27,0h0a1.1,1.1,0,0,0-.71.29,1.05,1.05,0,0,0-.29.71,1,1,0,0,0,.29.71,1,1,0,0,0,.71.29Z"/><path d="M62.49,24a3.19,3.19,0,0,0-1.26-2.92,4.94,4.94,0,0,0-3.09-.8A13.1,13.1,0,0,0,50,23.88c-.95.86.46,2.27,1.42,1.41a11.33,11.33,0,0,1,6.35-3,6.43,6.43,0,0,1,.76,0l.33,0c.2,0-.06,0,.15,0a3.77,3.77,0,0,1,.58.14s.26.1.1,0a1.17,1.17,0,0,1,.27.15s.24.16.15.09.12.12.14.14-.07-.13.05.06l.12.22c-.09-.18.06.23.08.33,0-.21,0,.07,0,.11s0,.28,0,.41a1,1,0,0,0,1,1,1,1,0,0,0,1-1Z"/><path d="M64.77,80.81a55.2,55.2,0,0,1-1.56-13.36,1,1,0,0,0-2,0,57.53,57.53,0,0,0,1.63,13.89,1,1,0,0,0,1.93-.53Z"/><path d="M58.17,38.3a33.7,33.7,0,0,1-1.7-6.49,1,1,0,0,0-1.23-.7,1,1,0,0,0-.7,1.23,34,34,0,0,0,1.71,6.5,1,1,0,0,0,1.92-.54Z"/><path d="M59.3,14.88a14.39,14.39,0,0,0,4.4-8A1,1,0,0,0,63,5.65a1,1,0,0,0-1.23.7,12.52,12.52,0,0,1-3.88,7.11,1,1,0,1,0,1.41,1.42Z"/><path d="M60.93,83.22l-4.34-5.49a1,1,0,0,0-1.41,0,1,1,0,0,0,0,1.41l4.34,5.5a1,1,0,0,0,1.41,0,1,1,0,0,0,0-1.42Z"/><path d="M55.62,56a28.91,28.91,0,0,0,6-11.59,1,1,0,0,0-1.93-.53,26.62,26.62,0,0,1-5.45,10.7,1,1,0,0,0,0,1.42,1,1,0,0,0,1.41,0Z"/><path d="M8.43,91.31a33.39,33.39,0,0,0,10.13,15c1,.82,2.4-.59,1.41-1.42a31.43,31.43,0,0,1-9.61-14.14c-.4-1.22-2.33-.69-1.93.53Z"/><path d="M130.09,110a30.34,30.34,0,0,1,13.26-4.36,1,1,0,0,0,1-1,1,1,0,0,0-1-1,32.67,32.67,0,0,0-14.27,4.63c-1.09.68-.09,2.41,1,1.73Z"/><path d="M121.68,110.09a12.33,12.33,0,0,1-.89-11.26,1,1,0,0,0-.7-1.23,1,1,0,0,0-1.23.7A14.24,14.24,0,0,0,120,111.1c.67,1.1,2.4.09,1.73-1Z"/><path d="M87.67,91.57A12.23,12.23,0,0,1,91.3,102a1,1,0,0,0,.7,1.23,1,1,0,0,0,1.23-.7,14.3,14.3,0,0,0-4.15-12.4c-.92-.9-2.33.51-1.41,1.41Z"/><path d="M137.54,77.59a12.3,12.3,0,0,1-.89-11.26,1,1,0,0,0-.7-1.23,1,1,0,0,0-1.23.7,14.24,14.24,0,0,0,1.09,12.8c.67,1.1,2.4.09,1.73-1Z"/><path d="M84.54,113.59a12.3,12.3,0,0,1-.89-11.26,1,1,0,0,0-.7-1.23,1,1,0,0,0-1.23.7,14.24,14.24,0,0,0,1.09,12.8c.67,1.1,2.4.09,1.73-1Z"/><path d="M86.69,57.85a53.23,53.23,0,0,1,1.8,12.61A26.22,26.22,0,0,1,87,80.4a1,1,0,1,0,1.93.53,27.78,27.78,0,0,0,1.58-10.47,55.2,55.2,0,0,0-1.87-13.15,1,1,0,0,0-1.93.54Z"/><path d="M85.66,6.91a53.12,53.12,0,0,1,20.67,6,49.13,49.13,0,0,1,5.13,3.17c1.05.74,2.05-1,1-1.73A53,53,0,0,0,92.09,5.78a57.75,57.75,0,0,0-6.43-.87c-1.28-.11-1.28,1.89,0,2Z"/><path d="M100.53,21.26l-.3-.17L100.1,21c-.19-.11.17.15,0,0a5.21,5.21,0,0,1-.47-.47c-.11-.13.1.14,0,0a.83.83,0,0,0-.08-.12l-.17-.27-.06-.13a.3.3,0,0,0,0-.08c0-.07,0,0,0,.11a2.64,2.64,0,0,0-.1-.3c0-.1-.05-.2-.07-.3s0,.19,0,.07a.61.61,0,0,0,0-.14c0-.11,0-.21,0-.31a.66.66,0,0,1,0-.14c0-.13.07-.16,0,0,0-.08,0-.18.06-.27s.08-.22.1-.32c0,.07-.09.2,0,0l.06-.12a3,3,0,0,1,.19-.3,1,1,0,0,0-.36-1.37,1,1,0,0,0-1.36.36,3.86,3.86,0,0,0-.53,3.28A4.41,4.41,0,0,0,99.52,23a1,1,0,0,0,1-1.73Z"/><path d="M74.53,64.26l-.3-.17L74.1,64c-.19-.11.17.15,0,0a5.21,5.21,0,0,1-.47-.47c-.11-.13.1.14,0,0a.83.83,0,0,0-.08-.12l-.17-.27-.06-.13a.3.3,0,0,0,0-.08c0-.07,0,0,0,.11a2.64,2.64,0,0,0-.1-.3c0-.1-.05-.2-.07-.3s0,.19,0,.07a.61.61,0,0,0,0-.14c0-.11,0-.21,0-.31a.66.66,0,0,1,0-.14c0-.13.07-.16,0,0,0-.08,0-.18.06-.27s.08-.22.1-.32c0,.07-.09.2,0,0l.06-.12a3,3,0,0,1,.19-.3,1,1,0,0,0-.36-1.37,1,1,0,0,0-1.36.36,3.86,3.86,0,0,0-.53,3.28A4.41,4.41,0,0,0,73.52,66a1,1,0,0,0,1-1.73Z"/><path d="M108.24,24.62q3.48-.5,7-.94a13,13,0,0,1,3.53-.16,7.34,7.34,0,0,1,2.69,1.09,94.68,94.68,0,0,1,10.88,8c1,.82,2.4-.59,1.41-1.41q-2.82-2.34-5.77-4.51a61.71,61.71,0,0,0-5.87-4,8.77,8.77,0,0,0-3-1.11,13.65,13.65,0,0,0-3.83.12c-2.5.32-5,.66-7.49,1a1,1,0,0,0-.7,1.23,1,1,0,0,0,1.23.7Z"/><path d="M69.71,27.62c1.1.28,2.23.53,3.31.89a7,7,0,0,1,2.5,1.88c1.74,1.7,3.43,3.44,5.09,5.22.88,1,2.29-.47,1.41-1.41-1.75-1.88-3.54-3.73-5.39-5.52a8.35,8.35,0,0,0-2.82-2,33,33,0,0,0-3.57-1,1,1,0,0,0-.53,1.93Z"/><path d="M102.72,58.1a18.56,18.56,0,0,0-.77-4.32,16.93,16.93,0,0,0-2.54-3.91q-3-3.9-6-7.69A1,1,0,0,0,92,43.59c1.94,2.4,3.86,4.83,5.73,7.29a15.91,15.91,0,0,1,2.39,3.55,8.39,8.39,0,0,1,.38,1.79c.12.8.23,1.61.35,2.41a1,1,0,0,0,1.23.7,1,1,0,0,0,.69-1.23Z"/><path d="M110.07,43.18A22,22,0,0,1,105,30c0-1.28-2-1.29-2,0a24.32,24.32,0,0,0,5.67,14.59c.82,1,2.23-.43,1.42-1.42Z"/><path d="M114.14,33.05a20.49,20.49,0,0,0,9.46,2.8,1,1,0,0,0,1-1,1,1,0,0,0-1-1,18.28,18.28,0,0,1-8.45-2.53,1,1,0,0,0-1,1.73Z"/><path d="M73.14,78.05a20.49,20.49,0,0,0,9.46,2.8,1,1,0,0,0,1-1,1,1,0,0,0-1-1,18.28,18.28,0,0,1-8.45-2.53,1,1,0,0,0-1,1.73Z"/><path d="M76.33,9a20.41,20.41,0,0,0,9.47,2.8,1,1,0,0,0,1-1,1,1,0,0,0-1-1,18.17,18.17,0,0,1-8.46-2.53,1,1,0,0,0-1,1.73Z"/><path d="M99.56,75.71A20.5,20.5,0,0,0,109,78.52a1,1,0,0,0,0-2A18.37,18.37,0,0,1,100.57,74a1,1,0,0,0-1,1.72Z"/><path d="M112.57,56.5c5.5-1.47,10.27-7,8.69-13a1,1,0,0,0-1.93.53c1.3,4.87-2.85,9.3-7.29,10.49a1,1,0,0,0,.53,1.93Z"/><path d="M132.17,41.09a63.49,63.49,0,0,1,12.39,14c.69,1.08,2.42.08,1.72-1a65.16,65.16,0,0,0-12.69-14.43c-1-.83-2.4.58-1.42,1.41Z"/><path d="M106.53,126.9l9.55-7a1,1,0,0,0,.35-1.36,1,1,0,0,0-1.36-.36l-9.55,7a1,1,0,0,0-.36,1.37,1,1,0,0,0,1.37.36Z"/><path d="M71.53,50.9l9.55-7a1,1,0,0,0,.35-1.36,1,1,0,0,0-1.36-.36l-9.55,7a1,1,0,0,0-.36,1.37,1,1,0,0,0,1.37.36Z"/><path d="M102,117.17a20.36,20.36,0,0,0,12.22-4.33,1,1,0,0,0,0-1.42,1,1,0,0,0-1.42,0,18.1,18.1,0,0,1-10.8,3.75,1,1,0,0,0,0,2Z"/><path d="M116.4,92.34a82.52,82.52,0,0,1,12.9-13.12c1-.82-.43-2.23-1.42-1.42A83,83,0,0,0,115,90.93a1,1,0,0,0,0,1.41,1,1,0,0,0,1.42,0Z"/><path d="M116.06,66.8l10.5-.7a1,1,0,0,0,0-2l-10.5.7a1,1,0,0,0-1,1,1,1,0,0,0,1,1Z"/><path d="M135.05,95.86l10.34-7c1.44-1,3.43-1.91,3.84-3.76s-.54-3.4-1.44-4.79c-.7-1.07-2.44-.07-1.73,1s1.73,2.53,1.08,3.7a5,5,0,0,1-1.73,1.42L143.14,88,134,94.14c-1.06.71-.06,2.45,1,1.72Z"/><path d="M108.77,90.79l-6.28,10.62c-.9,1.53-1.83,3-1,4.77a8.64,8.64,0,0,0,3.46,3.21c1.09.68,2.1-1,1-1.73s-2.34-1.39-2.75-2.55a1.94,1.94,0,0,1,.38-1.63c.46-.78.93-1.56,1.39-2.35l5.52-9.33a1,1,0,0,0-1.73-1Z"/><path d="M142,66.86,152.82,60c1.08-.69.08-2.42-1-1.73L141,65.14c-1.08.68-.08,2.42,1,1.72Z"/><path d="M98.43,31.53,92.91,21.08c-.6-1.14-2.33-.13-1.73,1L96.7,32.54c.6,1.14,2.33.13,1.73-1Z"/></g></g></svg>