<svg xmlns="http://www.w3.org/2000/svg" viewBox="0 0 200.93 156.33"><defs><style>.cls-1{fill:#fff;stroke:#000;stroke-miterlimit:10;stroke-width:2px;}</style></defs><title>coco_3</title><g id="Layer_2" data-name="Layer 2"><g id="Layer_1-2" data-name="Layer 1"><path class="cls-1" d="M86.12,152.49c-21,12.36-78.92-16.93-84.66-62.22s43-88.12,66.48-81.36c19,5.47,23.65,44.05,26.88,70.82C98.11,107,102.44,142.87,86.12,152.49Z"/><ellipse class="cls-1" cx="77.03" cy="80.7" rx="27.93" ry="72.36" transform="matrix(0.99, -0.13, 0.13, 0.99, -9.53, 10.32)"/><ellipse class="cls-1" cx="76.89" cy="80.75" rx="20.36" ry="58.69" transform="translate(-9.54 10.3) rotate(-7.22)"/><path d="M45.7,22.89a63.55,63.55,0,0,0-8.51,24.59,1,1,0,0,0,1,1,1,1,0,0,0,1-1,61.28,61.28,0,0,1,8.23-23.59,1,1,0,0,0-1.72-1Z"/><path d="M34.44,35.64l-1.81,4.77a1,1,0,0,0,.7,1.23,1,1,0,0,0,1.23-.7l1.81-4.77a1,1,0,0,0-.7-1.23,1,1,0,0,0-1.23.7Z"/><path d="M46.5,108.85l-4.5-2.4a1,1,0,0,0-1.37.36,1,1,0,0,0,.36,1.37l4.5,2.4a1,1,0,0,0,1.37-.36,1,1,0,0,0-.36-1.37Z"/><path d="M28,60.12a4.75,4.75,0,0,1,8.4,3.45c-.07,1.28,1.93,1.28,2,0a6.74,6.74,0,0,0-11.81-4.86c-.85,1,.56,2.38,1.41,1.41Z"/><path d="M36.49,95.36A4.75,4.75,0,0,1,44.9,98.8c-.08,1.29,1.92,1.28,2,0a6.75,6.75,0,0,0-11.82-4.86c-.84,1,.57,2.39,1.41,1.42Z"/><path d="M16.92,64.52c.76,3.58,5.91,5,8.44,2.39A1,1,0,1,0,24,65.5l-.19.18c-.18.18.1-.05-.06.06l-.38.23c-.05,0-.35.15-.09,0L23,66.1a3,3,0,0,1-.43.11c-.06,0-.39.05-.1,0h-.67l-.3,0c.16,0,.08,0,0,0a4.15,4.15,0,0,1-.48-.11,3.57,3.57,0,0,1-.46-.16c.23.09,0,0,0,0l-.24-.12-.41-.26c-.21-.14.15.13,0,0l-.2-.17c-.12-.11-.22-.23-.33-.35s.09.14,0,0l-.14-.22L19,64.53c-.1-.18,0,.17,0,0a4.28,4.28,0,0,1-.15-.51,1,1,0,1,0-1.92.54Z"/><path d="M43.93,137.34c1.36,5.44,7.66,9,13.06,7.79A7.62,7.62,0,0,0,60.85,143c.88-.93-.53-2.35-1.42-1.41-3.18,3.37-8.92,1.68-11.73-1.34a7.83,7.83,0,0,1-1.85-3.39,1,1,0,0,0-1.92.53Z"/><path d="M28.86,76.18a55.17,55.17,0,0,1,1.5,13.37,1,1,0,0,0,2,0,57.56,57.56,0,0,0-1.57-13.9c-.3-1.25-2.23-.72-1.93.53Z"/><path d="M46.87,115.42a55.17,55.17,0,0,1,1.5,13.37,1,1,0,0,0,2,0,57.56,57.56,0,0,0-1.57-13.9c-.3-1.25-2.23-.72-1.93.53Z"/><path d="M20.87,86.35l-3.47,17c-.25,1.26,1.68,1.79,1.93.53l3.47-17c.26-1.26-1.67-1.8-1.93-.54Z"/><path d="M22.79,46.9a14.43,14.43,0,0,0-4.43,8,1,1,0,0,0,.7,1.23,1,1,0,0,0,1.23-.7,12.55,12.55,0,0,1,3.92-7.1,1,1,0,0,0,0-1.41,1,1,0,0,0-1.42,0Z"/><path d="M32.13,122.12a14.5,14.5,0,0,0-4.43,8,1,1,0,0,0,.7,1.23,1,1,0,0,0,1.23-.7,12.53,12.53,0,0,1,3.92-7.09,1,1,0,0,0,0-1.42,1,1,0,0,0-1.42,0Z"/><path d="M15.55,71.3A9.57,9.57,0,0,0,12.5,83.69a1,1,0,0,0,1.73-1A7.53,7.53,0,0,1,16.56,73c1.07-.71.07-2.44-1-1.73Z"/><path d="M32.71,73.78,37,79.29a1,1,0,0,0,1.41,0,1,1,0,0,0,0-1.41l-4.31-5.51a1,1,0,0,0-1.42,0,1,1,0,0,0,0,1.41Z"/><path d="M32.9,101a29,29,0,0,0-6,11.56,1,1,0,0,0,1.93.53,26.9,26.9,0,0,1,5.5-10.68A1,1,0,1,0,32.9,101Z"/><path d="M9.24,100a33.28,33.28,0,0,0,10.13,15c1,.82,2.4-.58,1.41-1.41A31.41,31.41,0,0,1,11.17,99.5c-.4-1.22-2.33-.7-1.93.53Z"/><path class="cls-1" d="M136.85,1.46C160.56-4.06,207.09,41.24,199,86.17s-67.41,71.2-87.79,57.72c-16.49-10.9-9.38-49.11-4.44-75.61C111.79,41.29,118.4,5.75,136.85,1.46Z"/><ellipse class="cls-1" cx="121" cy="73.01" rx="69.63" ry="16.23" transform="translate(27.71 179.17) rotate(-79.8)"/><ellipse class="cls-1" cx="120.72" cy="72.32" rx="52.74" ry="7.24" transform="matrix(0.18, -0.98, 0.98, 0.18, 28.16, 178.32)"/><path d="M158.65,127.63a25.12,25.12,0,0,1,13-1.16,1,1,0,0,0,.53-1.93,27.27,27.27,0,0,0-14.07,1.16c-1.2.44-.68,2.37.54,1.93Z"/><path d="M151.14,125.7a15.83,15.83,0,0,1,2.72-12.11,1,1,0,0,0-.36-1.36,1,1,0,0,0-1.36.35,17.77,17.77,0,0,0-2.93,13.66c.24,1.26,2.17.72,1.93-.54Z"/><path d="M175.14,95.7a15.83,15.83,0,0,1,2.72-12.11,1,1,0,0,0-.36-1.36,1,1,0,0,0-1.36.35,17.77,17.77,0,0,0-2.93,13.66c.24,1.26,2.17.72,1.93-.54Z"/><path d="M151.05,8a43.43,43.43,0,0,1,16.31,11.58,42.43,42.43,0,0,1,3.47,4.53c.7,1.07,2.44.07,1.72-1a45.09,45.09,0,0,0-21-17,1,1,0,0,0-1.23.7A1,1,0,0,0,151.05,8Z"/><path d="M159.73,27l-.12-.13c-.08-.08.11.17,0,0s-.13-.19-.18-.29l-.14-.27c-.06-.1.07.2,0,0a.75.75,0,0,1,0-.16,2.45,2.45,0,0,1-.08-.29,1.42,1.42,0,0,1,0-.2c0-.16,0,.06,0,.06s0-.59,0-.67a.66.66,0,0,1,0-.14s0-.23,0-.07,0,0,0-.07l0-.16.09-.33.06-.16c0-.14,0,0,0,.05s.13-.25.16-.3a1.67,1.67,0,0,1,.18-.28c.07-.12,0,0,0,0s.08-.1.11-.13a3.31,3.31,0,0,1,.26-.27,1,1,0,0,0,0-1.41,1,1,0,0,0-1.41,0,4.78,4.78,0,0,0-.26,6.56,1,1,0,0,0,1.42,0,1,1,0,0,0,0-1.42Z"/><path d="M165.57,32.41c2.29.27,4.57.54,6.85.86a8,8,0,0,1,2.91.81,6.76,6.76,0,0,1,1.91,1.86,101.21,101.21,0,0,1,7,11.13,1,1,0,0,0,1.73-1q-1.74-3.12-3.66-6.12a61.42,61.42,0,0,0-3.89-5.69,7.51,7.51,0,0,0-2.31-2,9.82,9.82,0,0,0-3.19-.91c-2.45-.34-4.92-.64-7.38-.93a1,1,0,0,0-1,1,1,1,0,0,0,1,1Z"/><path d="M150.37,66.49a30.23,30.23,0,0,0,.68-4.63,15.67,15.67,0,0,0-.92-4.63q-1.44-5-3-9.87c-.4-1.22-2.33-.7-1.93.53,1,3.12,2,6.26,2.91,9.41a17.45,17.45,0,0,1,1,4.26,21.89,21.89,0,0,1-.61,4.4,1,1,0,0,0,.7,1.23,1,1,0,0,0,1.23-.7Z"/><path d="M161.54,52.74a27.12,27.12,0,0,1-.49-15.43,1,1,0,0,0-1.93-.53,29,29,0,0,0,.49,16.49c.4,1.21,2.33.69,1.93-.53Z"/><path d="M168.13,42.79a16.79,16.79,0,0,0,7.53,5.38,1,1,0,0,0,1.23-.7,1,1,0,0,0-.7-1.23,14.92,14.92,0,0,1-6.65-4.86,1,1,0,1,0-1.41,1.41Z"/><path d="M142.13,7.79a16.79,16.79,0,0,0,7.53,5.38,1,1,0,0,0,1.23-.7,1,1,0,0,0-.7-1.23,14.92,14.92,0,0,1-6.65-4.86,1,1,0,1,0-1.41,1.41Z"/><path d="M142.13,83.79a16.79,16.79,0,0,0,7.53,5.38,1,1,0,0,0,1.23-.7,1,1,0,0,0-.7-1.23,14.92,14.92,0,0,1-6.65-4.86,1,1,0,1,0-1.41,1.41Z"/><path d="M159.59,67a12.27,12.27,0,0,0,11.66-11.23c.08-1.29-1.92-1.28-2,0A10.23,10.23,0,0,1,159.59,65a1,1,0,0,0,0,2Z"/><path d="M181.56,55.92a67.15,67.15,0,0,1,6.59,17.94c.27,1.26,2.2.73,1.93-.53a68.85,68.85,0,0,0-6.8-18.42c-.61-1.13-2.34-.12-1.72,1Z"/><path d="M132.86,139.21l10.6-4.9a1,1,0,0,0,.36-1.37,1,1,0,0,0-1.37-.36l-10.6,4.91a1,1,0,0,0-.35,1.36,1,1,0,0,0,1.36.36Z"/><path d="M131.58,127.91a17.12,17.12,0,0,0,12.17-1.36c1.15-.58.14-2.31-1-1.72A15,15,0,0,1,132.11,126a1,1,0,0,0-.53,1.93Z"/><path d="M152.18,105.45a85.14,85.14,0,0,1,15.23-10.28c1.14-.6.13-2.32-1-1.72A86.11,86.11,0,0,0,150.77,104c-1,.83.44,2.24,1.41,1.41Z"/><path d="M159.49,78.7l9.48,2a1,1,0,0,0,.53-1.93l-9.48-2a1,1,0,1,0-.53,1.93Z"/><path d="M167.36,114.12l12-5c1.7-.7,3.38-1.29,4-3.16a8.89,8.89,0,0,0-.09-4.77c-.28-1.26-2.21-.72-1.93.53a6.26,6.26,0,0,1,.06,3.78,2.47,2.47,0,0,1-1.43,1.2c-.84.37-1.7.71-2.54,1.06l-10.68,4.41a1,1,0,0,0-.7,1.23,1,1,0,0,0,1.23.69Z"/><path d="M145.53,102.11l-8.35,9c-1.21,1.31-2.73,2.57-2.8,4.48-.07,1.75,1,3.37,2,4.71a1,1,0,0,0,1.37.36,1,1,0,0,0,.36-1.37c-.78-1-1.94-2.49-1.72-3.89a3.46,3.46,0,0,1,1.11-1.69l1.94-2.1,7.5-8.11c.88-1-.54-2.36-1.41-1.42Z"/><path d="M182.38,85.48l11.71-4.4a1,1,0,0,0,.69-1.24,1,1,0,0,0-1.23-.69l-11.7,4.4a1,1,0,0,0-.7,1.23,1,1,0,0,0,1.23.7Z"/><path d="M154.8,37.51l-1.66-12.39a1,1,0,0,0-1-1,1,1,0,0,0-1,1l1.66,12.39a1,1,0,0,0,1,1c.48,0,1.07-.46,1-1Z"/></g></g></svg>