<svg xmlns="http://www.w3.org/2000/svg" viewBox="0 0 177.15 148.43"><defs><style>.cls-1{fill:#fff;stroke:#000;stroke-miterlimit:10;stroke-width:2px;}</style></defs><title>coco_1</title><g id="Layer_2" data-name="Layer 2"><g id="Layer_1-2" data-name="Layer 1"><path class="cls-1" d="M116.18,130.32C103.29,151,38.35,151.73,12.36,114.2s-2.53-98,21.42-102.85C53.16,7.43,75.09,39.5,90.31,61.76,105.81,84.41,126.22,114.25,116.18,130.32Z"/><ellipse class="cls-1" cx="74.98" cy="70.83" rx="27.93" ry="72.36" transform="matrix(0.82, -0.57, 0.57, 0.82, -26.99, 55.3)"/><ellipse class="cls-1" cx="71.49" cy="66.05" rx="20.36" ry="52.74" transform="translate(-24.89 52.46) rotate(-34.71)"/><path d="M20.5,34.06a63.25,63.25,0,0,0,3.72,25.5c.44,1.2,2.38.68,1.93-.53a61.72,61.72,0,0,1-3.65-25c.07-1.29-1.93-1.28-2,0Z"/><path d="M16.38,50.31l.6,5.07a1,1,0,0,0,1,1,1,1,0,0,0,1-1l-.6-5.07a1,1,0,0,0-1-1,1,1,0,0,0-1,1Z"/><path d="M60.84,109.9l-5.1-.05a1,1,0,0,0,0,2l5.1.05a1,1,0,0,0,1-1,1,1,0,0,0-1-1Z"/><path d="M22,75.19A4.75,4.75,0,0,1,31,74.45a1,1,0,0,0,1.37.36,1,1,0,0,0,.36-1.37A6.75,6.75,0,0,0,20,74.66c-.3,1.25,1.63,1.78,1.93.53Z"/><path d="M45.8,102.51a4.75,4.75,0,0,1,9.05-.74,1,1,0,0,0,1.37.36,1,1,0,0,0,.36-1.37A6.74,6.74,0,0,0,43.87,102a1,1,0,0,0,1.93.53Z"/><path d="M14.21,84.25c2.36,2.85,7.54,1.62,8.58-1.83a1,1,0,1,0-1.92-.54c0,.09-.07.18-.09.26l0-.06-.07.14c-.07.13-.15.25-.23.38s.11-.11,0,0l-.17.19a3.8,3.8,0,0,1-.37.33c.2-.16,0,0,0,0l-.19.13a4.16,4.16,0,0,1-.47.24c.15-.07.05,0,0,0l-.22.07a4.27,4.27,0,0,1-.48.13l-.23,0h-.08l-.46,0-.23,0h-.08l-.48-.1-.21-.07c-.1,0-.19-.08,0,0a4.16,4.16,0,0,1-.47-.24L16,83.26c.2.13,0,0,0,0a4.59,4.59,0,0,1-.37-.39,1,1,0,0,0-1.41,0,1,1,0,0,0,0,1.41Z"/><path d="M71.78,136.39c3.74,4.2,11,4.4,15.21.81a7.62,7.62,0,0,0,2.38-3.71,1,1,0,0,0-1.93-.53c-1.27,4.48-7.21,5.56-11.07,4.17A7.69,7.69,0,0,1,73.2,135c-.86-1-2.27.45-1.42,1.41Z"/><path d="M30.19,89.08a55.14,55.14,0,0,1,7.5,11.19c.59,1.14,2.31.13,1.73-1A57.51,57.51,0,0,0,31.6,87.67c-.84-1-2.25.45-1.41,1.41Z"/><path d="M64.28,115.58a55.77,55.77,0,0,1,7.5,11.18c.58,1.15,2.31.14,1.72-1a57.26,57.26,0,0,0-7.81-11.58c-.85-1-2.26.44-1.41,1.41Z"/><path d="M27.79,101.83l4.77,16.69a1,1,0,0,0,1.93-.53L29.72,101.3a1,1,0,0,0-1.93.53Z"/><path d="M11.25,65.92A14.51,14.51,0,0,0,11,75.06c.38,1.23,2.31.71,1.93-.53a12.63,12.63,0,0,1,.22-8.08,1,1,0,0,0-.7-1.23,1,1,0,0,0-1.23.7Z"/><path d="M54.26,128.34a14.37,14.37,0,0,0-.22,9.14c.38,1.23,2.31.71,1.93-.53a12.63,12.63,0,0,1,.22-8.08,1,1,0,0,0-.7-1.23,1,1,0,0,0-1.23.7Z"/><path d="M16.08,90.9a9.59,9.59,0,0,0,3.06,12.39c1.08.71,2.09-1,1-1.73a7.54,7.54,0,0,1-2.34-9.65,1,1,0,0,0-1.73-1Z"/><path d="M32.27,85.06,38.64,88a1,1,0,0,0,1-1.73l-6.37-2.9a1,1,0,0,0-1.37.36,1,1,0,0,0,.36,1.37Z"/><path d="M45.19,109.24a28.9,28.9,0,0,0,0,13.05c.29,1.25,2.22.72,1.93-.53a26.53,26.53,0,0,1,0-12c.28-1.25-1.65-1.79-1.93-.53Z"/><path d="M23.79,119.3a33.23,33.23,0,0,0,15.93,8.63c1.25.28,1.79-1.64.53-1.92a31.39,31.39,0,0,1-15-8.13c-.93-.9-2.34.52-1.42,1.42Z"/><path class="cls-1" d="M113.07,1.46c23.7-5.52,70.23,39.78,62.14,84.71s-67.4,71.2-87.78,57.72C70.94,133,78.05,94.78,83,68.28,88,41.29,94.62,5.75,113.07,1.46Z"/><ellipse class="cls-1" cx="100.25" cy="72.67" rx="72.36" ry="27.93" transform="translate(10.96 158.46) rotate(-79.8)"/><ellipse class="cls-1" cx="99.85" cy="71.64" rx="52.74" ry="20.36" transform="translate(11.65 157.22) rotate(-79.8)"/><path d="M134.86,127.63a25.14,25.14,0,0,1,13-1.16,1,1,0,0,0,1.23-.7,1,1,0,0,0-.69-1.23,27.27,27.27,0,0,0-14.07,1.16c-1.2.44-.68,2.37.53,1.93Z"/><path d="M127.35,125.7a15.79,15.79,0,0,1,2.73-12.11,1,1,0,0,0-1.73-1,17.85,17.85,0,0,0-2.93,13.66c.25,1.26,2.17.72,1.93-.54Z"/><path d="M127.27,8a43.39,43.39,0,0,1,16.3,11.58A42.43,42.43,0,0,1,147,24.08c.71,1.07,2.44.07,1.73-1a45,45,0,0,0-21-17,1,1,0,0,0-1.23.7,1,1,0,0,0,.7,1.23Z"/><path d="M135.94,27l-.11-.13c-.09-.08.11.17,0,0l-.18-.29-.14-.27c-.06-.1.07.2,0,0l-.06-.16a2.45,2.45,0,0,1-.08-.29,1.42,1.42,0,0,1,0-.2c0-.16,0,.06,0,.06s0-.59,0-.67,0-.09,0-.14,0-.23,0-.07,0,0,0-.07l0-.16c0-.11.06-.22.1-.33a1,1,0,0,1,.05-.16c0-.14,0,0,0,.05s.12-.25.15-.3l.18-.28c.07-.12,0,0,0,0s.09-.1.11-.13a3.44,3.44,0,0,1,.27-.27,1,1,0,0,0,0-1.41,1,1,0,0,0-1.42,0,4.78,4.78,0,0,0-.25,6.56,1,1,0,0,0,1.41,0,1,1,0,0,0,0-1.42Z"/><path d="M141.79,32.41c2.28.27,4.57.54,6.84.86a8,8,0,0,1,2.91.81,6.67,6.67,0,0,1,1.92,1.86,101.13,101.13,0,0,1,7,11.13,1,1,0,0,0,1.73-1c-1.16-2.08-2.37-4.12-3.65-6.12a63.55,63.55,0,0,0-3.9-5.69,7.48,7.48,0,0,0-2.3-2,9.89,9.89,0,0,0-3.19-.91c-2.46-.34-4.92-.64-7.38-.93a1,1,0,0,0-1,1,1,1,0,0,0,1,1Z"/><path d="M137.75,52.74a27,27,0,0,1-.48-15.43,1,1,0,0,0-1.93-.53,29.11,29.11,0,0,0,.48,16.49c.4,1.21,2.34.69,1.93-.53Z"/><path d="M144.34,42.79a16.81,16.81,0,0,0,7.54,5.38,1,1,0,0,0,.53-1.93,14.87,14.87,0,0,1-6.65-4.86,1,1,0,0,0-1.42,1.41Z"/><path d="M135.8,67a12.27,12.27,0,0,0,11.66-11.23c.08-1.29-1.92-1.28-2,0A10.23,10.23,0,0,1,135.8,65a1,1,0,0,0,0,2Z"/><path d="M157.77,55.92a67.18,67.18,0,0,1,6.6,17.94c.27,1.26,2.19.73,1.93-.53a69.54,69.54,0,0,0-6.8-18.42c-.61-1.13-2.34-.12-1.73,1Z"/><path d="M109.08,139.21l10.59-4.9a1,1,0,0,0,.36-1.37,1,1,0,0,0-1.37-.36l-10.59,4.91a1,1,0,0,0-.36,1.36,1,1,0,0,0,1.37.36Z"/><path d="M118.09,121.21a17.09,17.09,0,0,0,7.88,9.35c1.12.62,2.14-1.11,1-1.72a15.06,15.06,0,0,1-7-8.16,1,1,0,0,0-1.93.53Z"/><path d="M128.4,105.45a84.43,84.43,0,0,1,15.23-10.28c1.14-.6.13-2.32-1-1.72A86.19,86.19,0,0,0,127,104c-1,.83.44,2.24,1.42,1.41Z"/><path d="M135.7,78.7l9.49,2a1,1,0,0,0,.53-1.93l-9.49-2a1,1,0,1,0-.53,1.93Z"/><path d="M143.58,114.12l12-5c1.69-.7,3.37-1.29,4-3.16a8.89,8.89,0,0,0-.1-4.77c-.27-1.26-2.2-.72-1.92.53a6.41,6.41,0,0,1,.06,3.78,2.49,2.49,0,0,1-1.44,1.2c-.83.37-1.69.71-2.54,1.06l-10.67,4.41a1,1,0,0,0-.7,1.23,1,1,0,0,0,1.23.69Z"/><path d="M158.6,85.48l11.7-4.4a1,1,0,0,0,.7-1.24,1,1,0,0,0-1.23-.69l-11.7,4.4a1,1,0,0,0,.53,1.93Z"/></g></g></svg>