<svg xmlns="http://www.w3.org/2000/svg" viewBox="0 0 178 144.41"><defs><style>.cls-1{fill:#fff;stroke:#000;stroke-miterlimit:10;stroke-width:2px;}</style></defs><title>coco</title><g id="Layer_2" data-name="Layer 2"><g id="Layer_1-2" data-name="Layer 1"><path class="cls-1" d="M137,106.2c-3.19,24.13-62,51.73-101.17,28.34S-7.07,46.38,12.72,32.05c16-11.6,49.27,8.51,72.33,22.46C108.54,68.72,139.48,87.42,137,106.2Z"/><ellipse class="cls-1" cx="74.86" cy="69.13" rx="27.93" ry="72.36" transform="translate(-22.86 97.99) rotate(-59.18)"/><path class="cls-1" d="M139.8,2.64c24.13,3.19,51.72,62,28.33,101.17S80,146.71,65.64,126.92c-11.59-16,8.52-49.27,22.47-72.34C102.31,31.1,121,.16,139.8,2.64Z"/><ellipse class="cls-1" cx="69.7" cy="66.21" rx="20.36" ry="52.74" transform="translate(-22.88 92.14) rotate(-59.18)"/><ellipse class="cls-1" cx="102.72" cy="64.78" rx="72.36" ry="27.93" transform="translate(-5.54 119.8) rotate(-59.18)"/><ellipse class="cls-1" cx="102.71" cy="63.68" rx="52.74" ry="20.36" transform="translate(-4.6 119.25) rotate(-59.18)"/><path d="M10,58.07A63.57,63.57,0,0,0,24.05,80a1,1,0,0,0,1.41-1.41,61.37,61.37,0,0,1-13.55-21,1,1,0,0,0-1.23-.7,1,1,0,0,0-.7,1.23Z"/><path d="M13.07,74.81l2.64,4.36a1,1,0,1,0,1.73-1L14.79,73.8a1,1,0,0,0-1.36-.36,1,1,0,0,0-.36,1.37Z"/><path d="M28.39,94.94a4.75,4.75,0,0,1,7.83-4.43,1,1,0,1,0,1.42-1.42,6.75,6.75,0,0,0-11.18,6.38,1,1,0,1,0,1.93-.53Z"/><path d="M25,106.44a5.25,5.25,0,0,0,6.9-2.83,4.51,4.51,0,0,0,.28-2.44,1,1,0,0,0-1.23-.69,1,1,0,0,0-.7,1.23c0-.3,0,0,0,.09V102s0,.23,0,.28l0-.13,0,.13a2.52,2.52,0,0,1-.13.47.5.5,0,0,1-.05.13c.06-.12.07-.15,0-.08s-.07.15-.11.22a4.23,4.23,0,0,1-.25.42s-.15.25,0,0a1.18,1.18,0,0,1-.18.21,3.34,3.34,0,0,1-.32.33l-.19.16c-.15.13.16-.1-.06,0a2.77,2.77,0,0,1-.83.48c.26,0,0,0-.09,0l-.2.06a4.15,4.15,0,0,1-.48.11c-.22,0,.19,0,0,0l-.28,0c-.11,0-.4,0-.48,0,.14,0,.17,0,.09,0h-.1l-.27-.07-.2-.07c-.11,0-.09,0,0,0l-.13-.06a1,1,0,1,0-1,1.73Z"/><path d="M34.73,101.44a91.82,91.82,0,0,1,18.45,10c1.06.73,2.06-1,1-1.73A93.8,93.8,0,0,0,35.26,99.51a1,1,0,0,0-1.23.7,1,1,0,0,0,.7,1.23Z"/><path d="M44.8,117l11.26,13.22c.84,1,2.25-.44,1.42-1.42L46.21,115.53c-.83-1-2.24.44-1.41,1.42Z"/><path d="M14.81,90.89a14.61,14.61,0,0,0,3.65,8.64,1,1,0,1,0,1.42-1.41,12.45,12.45,0,0,1-3.07-7.23,1,1,0,0,0-1-1,1,1,0,0,0-1,1Z"/><path d="M29.56,111.89a9.54,9.54,0,0,0,7.75,9.87,1,1,0,0,0,.54-1.93,7.57,7.57,0,0,1-6.29-7.94,1,1,0,1,0-2,0Z"/><path d="M42,99.77h7a1,1,0,1,0,0-2H42a1,1,0,0,0,0,2Z"/><path d="M115.85,128.41A25.08,25.08,0,0,1,128.42,132a1,1,0,0,0,1-1.73,27.06,27.06,0,0,0-13.58-3.82,1,1,0,0,0,0,2Z"/><path d="M36.67,109.53A28.32,28.32,0,0,0,42,121.15a1,1,0,0,0,1.37.36,1,1,0,0,0,.36-1.37A27,27,0,0,1,38.6,109c-.26-1.26-2.19-.73-1.93.53Z"/><path d="M109.38,124.13a15.79,15.79,0,0,1,6.72-10.46c1.07-.71.07-2.44-1-1.73a17.76,17.76,0,0,0-7.64,11.66,1,1,0,0,0,.7,1.23,1,1,0,0,0,1.23-.7Z"/><path d="M150.68,13.64A43.39,43.39,0,0,1,162,30.32a44.84,44.84,0,0,1,1.67,5.55c.29,1.26,2.22.73,1.93-.53a45.49,45.49,0,0,0-9.35-18.78,43.52,43.52,0,0,0-4.14-4.34c-1-.87-2.37.55-1.41,1.42Z"/><path d="M152.25,34.79a3.82,3.82,0,0,1-.19-.66c0-.18,0,.18,0,.06s0-.11,0-.16,0-.22,0-.34,0-.23,0-.33c0,.08,0,.21,0,0l0-.15a2,2,0,0,1,.09-.33.88.88,0,0,1,.05-.15l0-.09c0-.07,0,0,0,.1a1.2,1.2,0,0,0,.13-.28,2.75,2.75,0,0,1,.17-.29l.09-.13.06-.08c0-.06,0,0-.07.08s.17-.19.21-.23a2.61,2.61,0,0,1,.24-.23,1.27,1.27,0,0,0,.12-.1l-.08.06.08-.05a2.26,2.26,0,0,1,.26-.16l.16-.09c.17-.09-.2.08,0,0a1,1,0,1,0-.53-1.93,4.76,4.76,0,0,0-2.75,6,1,1,0,1,0,1.93-.53Z"/><path d="M155.63,41.65q3,1.55,6,3.14A10.77,10.77,0,0,1,164,46.34a5.77,5.77,0,0,1,1.4,2.55,90.5,90.5,0,0,1,2.76,13.24,1,1,0,1,0,1.93-.53c-.36-2.4-.78-4.79-1.29-7.16a49.94,49.94,0,0,0-1.67-6.69,7.64,7.64,0,0,0-1.57-2.68A10.81,10.81,0,0,0,163,43.26c-2.09-1.14-4.2-2.24-6.31-3.34-1.15-.59-2.16,1.13-1,1.73Z"/><path d="M144.84,59.24a27.18,27.18,0,0,1,5-14.6,1,1,0,1,0-1.72-1,29,29,0,0,0-5.31,15.61c-.05,1.28,1.95,1.28,2,0Z"/><path d="M154.46,52.2a16.77,16.77,0,0,0,5.09,7.72,1,1,0,0,0,1.42,0,1,1,0,0,0,0-1.41,14.81,14.81,0,0,1-4.58-6.85,1,1,0,0,0-1.23-.69,1,1,0,0,0-.7,1.23Z"/><path d="M138.08,72a12.25,12.25,0,0,0,14.71-6.28,1,1,0,0,0-.35-1.37,1,1,0,0,0-1.37.36,10.27,10.27,0,0,1-12.46,5.36c-1.21-.43-1.74,1.5-.53,1.93Z"/><path d="M162.48,69.45a66.51,66.51,0,0,1-.14,18.85,1,1,0,0,0,.7,1.23,1,1,0,0,0,1.23-.7,69.9,69.9,0,0,0,.14-19.91,1,1,0,0,0-1.23-.7,1,1,0,0,0-.7,1.23Z"/><path d="M87.38,130.18,99,129.32c1.28-.09,1.29-2.09,0-2l-11.64.86c-1.27.09-1.28,2.09,0,2Z"/><path d="M48.42,134.47a33.4,33.4,0,0,0,18.1,1.21c1.26-.26.73-2.19-.53-1.93a31.36,31.36,0,0,1-17-1.21c-1.22-.44-1.74,1.49-.54,1.93Z"/><path d="M102.32,116.58a17.2,17.2,0,0,0,4.15,11.51,1,1,0,1,0,1.42-1.41,15.08,15.08,0,0,1-3.57-10.1,1,1,0,0,0-2,0Z"/><path d="M117.38,105.43a84.19,84.19,0,0,1,17.85-4.3,1,1,0,0,0,1-1,1,1,0,0,0-1-1,86.24,86.24,0,0,0-18.39,4.37c-1.2.43-.68,2.36.54,1.93Z"/><path d="M133.86,83,142,88.15a1,1,0,1,0,1-1.72l-8.18-5.2a1,1,0,0,0-1,1.73Z"/><path d="M128.77,118.84l13-.42c1.84-.06,3.63-.06,4.86-1.64a8.69,8.69,0,0,0,1.49-4.22,1,1,0,0,0-.7-1.23,1,1,0,0,0-1.23.7,7.32,7.32,0,0,1-1.15,3.56,2.13,2.13,0,0,1-1.57.77c-1,.08-2,.07-2.94.1l-11.79.38c-1.29,0-1.29,2,0,2Z"/><path d="M152.91,97.32h12.51a1,1,0,0,0,0-2H152.91a1,1,0,0,0,0,2Z"/></g></g></svg>