<svg xmlns="http://www.w3.org/2000/svg" viewBox="0 0 200.09 151.31"><defs><style>.cls-1{fill:#fff;stroke:#000;stroke-miterlimit:10;stroke-width:2px;}</style></defs><title>coco_4</title><g id="Layer_2" data-name="Layer 2"><g id="Layer_1-2" data-name="Layer 1"><path class="cls-1" d="M85.65,147.53c-21,11.92-78.76-15.68-84.23-58.84s43.48-84.3,66.9-78c19,5.1,23.38,41.87,26.45,67.38C97.9,104.05,102,138.26,85.65,147.53Z"/><ellipse class="cls-1" cx="82.56" cy="79.21" rx="13.35" ry="64.99" transform="translate(-9.3 11) rotate(-7.22)"/><ellipse class="cls-1" cx="82.35" cy="79.54" rx="8.38" ry="55.37" transform="translate(-9.34 10.98) rotate(-7.22)"/><path d="M44.85,22.89a63.71,63.71,0,0,0-8.51,24.59,1,1,0,0,0,1,1,1,1,0,0,0,1-1,61.3,61.3,0,0,1,8.24-23.59,1,1,0,0,0-1.73-1Z"/><path d="M33.6,35.64l-1.81,4.77a1,1,0,0,0,.7,1.23,1,1,0,0,0,1.23-.7l1.81-4.77a1,1,0,0,0-.7-1.23,1,1,0,0,0-1.23.7Z"/><path d="M45.65,108.85l-4.5-2.4a1,1,0,0,0-1,1.73l4.51,2.4a1,1,0,0,0,1-1.73Z"/><path d="M27.13,60.12a4.75,4.75,0,0,1,8.4,3.45c-.08,1.28,1.92,1.28,2,0a6.74,6.74,0,0,0-11.82-4.86c-.84,1,.57,2.38,1.42,1.41Z"/><path d="M35.65,95.36a4.75,4.75,0,0,1,8.41,3.44c-.08,1.29,1.92,1.28,2,0a6.75,6.75,0,0,0-11.82-4.86c-.85,1,.56,2.39,1.41,1.42Z"/><path d="M16.07,64.52c.77,3.58,5.92,5,8.45,2.39a1,1,0,0,0-1.41-1.41l-.19.18c-.18.18.1-.05-.06.06l-.38.23c-.05,0-.35.15-.1,0l-.2.08a3.39,3.39,0,0,1-.43.11c-.06,0-.39.05-.1,0H21l-.3,0c.17,0,.09,0,0,0a4.15,4.15,0,0,1-.48-.11,4.34,4.34,0,0,1-.47-.16c.24.09,0,0,0,0l-.24-.12L19,65.55c-.21-.14.15.13,0,0l-.19-.17c-.12-.11-.22-.23-.33-.35s.09.14,0,0a1.64,1.64,0,0,1-.14-.22l-.12-.22c-.1-.18,0,.17,0,0A4.28,4.28,0,0,1,18,64a1,1,0,0,0-1.23-.69,1,1,0,0,0-.7,1.23Z"/><path d="M43.08,137.34c1.37,5.44,7.67,9,13.07,7.79A7.71,7.71,0,0,0,60,143c.88-.93-.53-2.35-1.42-1.41-3.18,3.37-8.92,1.68-11.73-1.34A7.73,7.73,0,0,1,45,136.81a1,1,0,0,0-1.93.53Z"/><path d="M28,76.18a55.17,55.17,0,0,1,1.5,13.37,1,1,0,0,0,2,0A57.56,57.56,0,0,0,30,75.65c-.3-1.25-2.23-.72-1.93.53Z"/><path d="M46,115.42a55.67,55.67,0,0,1,1.5,13.37,1,1,0,0,0,2,0A58.06,58.06,0,0,0,48,114.89c-.31-1.25-2.23-.72-1.93.53Z"/><path d="M78.59,139.43a55.4,55.4,0,0,1-10.45-8.49c-.89-.93-2.31.49-1.41,1.41a57.48,57.48,0,0,0,10.85,8.81c1.09.68,2.1-1,1-1.73Z"/><path d="M20,86.35l-3.47,17c-.25,1.26,1.67,1.79,1.93.53l3.47-17c.26-1.26-1.67-1.8-1.93-.54Z"/><path d="M22,46.9a14.31,14.31,0,0,0-4.43,8,1,1,0,1,0,1.93.53,12.6,12.6,0,0,1,3.91-7.1A1,1,0,0,0,22,46.9Z"/><path d="M31.29,122.12a14.38,14.38,0,0,0-4.43,8,1,1,0,0,0,.7,1.23,1,1,0,0,0,1.23-.7,12.53,12.53,0,0,1,3.92-7.09,1,1,0,0,0-1.42-1.42Z"/><path d="M14.71,71.3a9.57,9.57,0,0,0-3.05,12.39,1,1,0,0,0,1.72-1A7.55,7.55,0,0,1,15.71,73c1.08-.71.07-2.44-1-1.73Z"/><path d="M32.06,101a28.89,28.89,0,0,0-6,11.56,1,1,0,0,0,1.93.53,26.9,26.9,0,0,1,5.5-10.68A1,1,0,1,0,32.06,101Z"/><path d="M46,76.33a48.67,48.67,0,0,0,7.4-11.57A1,1,0,0,0,53,63.39a1,1,0,0,0-1.37.36,47.33,47.33,0,0,1-7.09,11.16,1,1,0,0,0,0,1.42,1,1,0,0,0,1.41,0Z"/><path d="M45,53.92l4.51,2.38a1,1,0,1,0,1-1.73L46,52.19a1,1,0,0,0-1.37.36A1,1,0,0,0,45,53.92Z"/><path d="M65.69,105.57a4.75,4.75,0,0,1-8.42-3.4c.08-1.29-1.92-1.29-2,0A6.74,6.74,0,0,0,67.11,107a1,1,0,0,0-1.42-1.41Z"/><path d="M64.25,122.59a1.31,1.31,0,0,0,1-.6,1.42,1.42,0,0,0,.2-.83,4,4,0,0,0-.59-1.66,8.08,8.08,0,0,0-2.1-2.37A1,1,0,0,0,62,117a1,1,0,0,0-.6.46,1,1,0,0,0-.1.77,1.18,1.18,0,0,0,.46.6l-.09-.07s.06,0,.07.06l.16.14.32.31c.1.11.21.22.31.34l.15.19.08.09c-.06-.06-.12-.16,0,0a5.47,5.47,0,0,1,.49.76c.05.08.09.16.13.24s.07.17,0,0,0,0,0,0a2.17,2.17,0,0,1,.11.42l0-.27a1.13,1.13,0,0,1,0,.26l0-.26s0,0,0,.06l.08-.19s0,0,0-.06a1.24,1.24,0,0,1,.22-.2c-.06,0,.28-.1.16-.07l.26,0h0a1.08,1.08,0,0,0-.7.29,1,1,0,0,0-.3.71,1,1,0,0,0,.3.7,1,1,0,0,0,.7.3Z"/><path d="M62.45,32.69a3.17,3.17,0,0,0-1.26-2.93A5,5,0,0,0,58.1,29,13.16,13.16,0,0,0,50,32.59c-1,.87.46,2.28,1.41,1.42a11.33,11.33,0,0,1,6.35-3,6.52,6.52,0,0,1,.76,0l.33,0c.21,0-.06,0,.16,0a4,4,0,0,1,.57.14s.27.11.11,0l.27.14s.24.17.14.09.12.13.14.15-.07-.13.05.06l.12.21c-.09-.17.07.23.08.34,0-.21,0,.06,0,.11s0,.27,0,.41a1,1,0,0,0,1,1,1,1,0,0,0,1-1Z"/><path d="M64.73,89.52a55.59,55.59,0,0,1-1.56-13.36,1,1,0,0,0-2,0,58,58,0,0,0,1.64,13.89c.3,1.25,2.23.72,1.92-.53Z"/><path d="M58.14,47a33.82,33.82,0,0,1-1.71-6.5,1,1,0,0,0-1.23-.69,1,1,0,0,0-.7,1.23,33.91,33.91,0,0,0,1.71,6.49,1,1,0,0,0,1.23.7,1,1,0,0,0,.7-1.23Z"/><path d="M61.27,19.59a14.45,14.45,0,0,0,4.4-8,1,1,0,0,0-.7-1.23,1,1,0,0,0-1.23.69,12.59,12.59,0,0,1-3.89,7.12,1,1,0,0,0,0,1.41,1,1,0,0,0,1.42,0Z"/><path d="M60.89,91.94l-4.33-5.49a1,1,0,0,0-1.42,0,1,1,0,0,0,0,1.41l4.34,5.49a1,1,0,0,0,1.41,0,1,1,0,0,0,0-1.41Z"/><path d="M55.59,64.73a28.93,28.93,0,0,0,6-11.58,1,1,0,0,0-1.93-.53,26.7,26.7,0,0,1-5.46,10.7,1,1,0,0,0,0,1.41,1,1,0,0,0,1.42,0Z"/><path d="M8.4,100a33.34,33.34,0,0,0,10.12,15c1,.82,2.41-.58,1.42-1.41A31.33,31.33,0,0,1,10.33,99.5c-.4-1.22-2.34-.7-1.93.53Z"/><path class="cls-1" d="M136,1.46c23.71-5.52,70.24,39.78,62.15,84.71s-67.41,71.2-87.79,57.72C93.88,133,101,94.78,105.93,68.28,111,41.29,117.56,5.75,136,1.46Z"/><ellipse class="cls-1" cx="120.16" cy="73.01" rx="69.63" ry="16.23" transform="translate(27.02 178.34) rotate(-79.8)"/><ellipse class="cls-1" cx="119.88" cy="72.32" rx="52.74" ry="7.24" transform="matrix(0.18, -0.98, 0.98, 0.18, 27.47, 177.49)"/><path d="M157.8,127.63a25.17,25.17,0,0,1,13-1.16,1,1,0,0,0,.53-1.93,27.27,27.27,0,0,0-14.07,1.16c-1.2.44-.68,2.37.53,1.93Z"/><path d="M150.3,125.7A15.83,15.83,0,0,1,153,113.59a1,1,0,0,0-.36-1.36,1,1,0,0,0-1.37.35,17.81,17.81,0,0,0-2.92,13.66c.24,1.26,2.17.72,1.93-.54Z"/><path d="M174.3,95.7A15.83,15.83,0,0,1,177,83.59a1,1,0,0,0-.36-1.36,1,1,0,0,0-1.37.35,17.81,17.81,0,0,0-2.92,13.66c.24,1.26,2.17.72,1.93-.54Z"/><path d="M150.21,8a43.31,43.31,0,0,1,16.3,11.58A41.16,41.16,0,0,1,170,24.08c.71,1.07,2.45.07,1.73-1a45,45,0,0,0-21-17,1,1,0,0,0-1.23.7,1,1,0,0,0,.7,1.23Z"/><path d="M158.88,27l-.11-.13c-.08-.08.11.17,0,0l-.18-.29c0-.09-.08-.18-.13-.27s.07.2,0,0l-.06-.16c0-.09,0-.19-.08-.29a1.42,1.42,0,0,0,0-.2c0-.16,0,.06,0,.06s0-.59,0-.67a.66.66,0,0,0,0-.14s.05-.23,0-.07,0,0,0-.07,0-.11,0-.16a2,2,0,0,1,.09-.33l.06-.16c.05-.14,0,0,0,.05s.13-.25.15-.3l.18-.28c.08-.12,0,0,0,0s.08-.1.11-.13a3.31,3.31,0,0,1,.26-.27,1,1,0,1,0-1.41-1.41,4.77,4.77,0,0,0-.26,6.56,1,1,0,0,0,1.41,0,1,1,0,0,0,0-1.42Z"/><path d="M164.73,32.41c2.28.27,4.57.54,6.85.86a7.85,7.85,0,0,1,2.9.81,6.67,6.67,0,0,1,1.92,1.86,101.21,101.21,0,0,1,7,11.13c.62,1.12,2.35.12,1.72-1q-1.72-3.12-3.65-6.12a61.52,61.52,0,0,0-3.9-5.69,7.36,7.36,0,0,0-2.3-2,9.89,9.89,0,0,0-3.19-.91c-2.46-.34-4.92-.64-7.38-.93a1,1,0,0,0-1,1,1,1,0,0,0,1,1Z"/><path d="M149.53,66.49a31.52,31.52,0,0,0,.68-4.63,16,16,0,0,0-.92-4.63q-1.44-5-3-9.87c-.4-1.22-2.33-.7-1.93.53q1.52,4.68,2.91,9.41a17.45,17.45,0,0,1,1,4.26,23.42,23.42,0,0,1-.61,4.4,1,1,0,0,0,.7,1.23,1,1,0,0,0,1.23-.7Z"/><path d="M160.69,52.74a27.2,27.2,0,0,1-.48-15.43,1,1,0,0,0-1.93-.53,29,29,0,0,0,.49,16.49c.4,1.21,2.33.69,1.92-.53Z"/><path d="M167.29,42.79a16.79,16.79,0,0,0,7.53,5.38,1,1,0,0,0,.53-1.93,14.92,14.92,0,0,1-6.65-4.86,1,1,0,0,0-1.41,1.41Z"/><path d="M141.29,7.79a16.79,16.79,0,0,0,7.53,5.38,1,1,0,1,0,.53-1.93,14.92,14.92,0,0,1-6.65-4.86,1,1,0,0,0-1.41,1.41Z"/><path d="M141.29,83.79a16.79,16.79,0,0,0,7.53,5.38,1,1,0,0,0,.53-1.93,14.92,14.92,0,0,1-6.65-4.86,1,1,0,0,0-1.41,1.41Z"/><path d="M158.74,67a12.28,12.28,0,0,0,11.67-11.23c.08-1.29-1.92-1.28-2,0A10.25,10.25,0,0,1,158.74,65a1,1,0,0,0,0,2Z"/><path d="M180.72,55.92a67.5,67.5,0,0,1,6.59,17.94c.27,1.26,2.2.73,1.93-.53a68.85,68.85,0,0,0-6.8-18.42c-.61-1.13-2.34-.12-1.72,1Z"/><path d="M132,139.21l10.6-4.9a1,1,0,0,0,.35-1.37,1,1,0,0,0-1.36-.36L131,137.49a1,1,0,0,0-.36,1.36,1,1,0,0,0,1.37.36Z"/><path d="M130.74,127.91a17.13,17.13,0,0,0,12.17-1.36c1.15-.58.14-2.31-1-1.72A15,15,0,0,1,131.27,126a1,1,0,0,0-.53,1.93Z"/><path d="M151.34,105.45a84.78,84.78,0,0,1,15.23-10.28c1.14-.6.13-2.32-1-1.72A86.11,86.11,0,0,0,149.93,104c-1,.83.44,2.24,1.41,1.41Z"/><path d="M158.64,78.7l9.49,2a1,1,0,0,0,.53-1.93l-9.48-2a1,1,0,0,0-1.23.7,1,1,0,0,0,.69,1.23Z"/><path d="M166.52,114.12l12-5c1.69-.7,3.37-1.29,4-3.16a9,9,0,0,0-.09-4.77c-.28-1.26-2.21-.72-1.93.53a6.26,6.26,0,0,1,.06,3.78,2.5,2.5,0,0,1-1.43,1.2c-.84.37-1.7.71-2.55,1.06L166,112.2a1,1,0,0,0-.7,1.23,1,1,0,0,0,1.23.69Z"/><path d="M144.69,102.11l-8.35,9c-1.21,1.31-2.73,2.57-2.8,4.48-.07,1.75,1,3.37,2,4.71a1,1,0,0,0,1.37.36,1,1,0,0,0,.36-1.37c-.79-1-1.94-2.49-1.72-3.89a3.46,3.46,0,0,1,1.11-1.69l1.94-2.1,7.5-8.11c.87-1-.54-2.36-1.41-1.42Z"/><path d="M181.54,85.48l11.7-4.4a1,1,0,0,0,.7-1.24,1,1,0,0,0-1.23-.69L181,83.55a1,1,0,0,0-.7,1.23,1,1,0,0,0,1.23.7Z"/><path d="M154,37.51,152.3,25.12a1,1,0,0,0-1-1c-.49,0-1.08.46-1,1L152,37.51a1,1,0,0,0,1,1c.48,0,1.07-.46,1-1Z"/></g></g></svg>