<svg xmlns="http://www.w3.org/2000/svg" viewBox="0 0 30.17 33.4"><defs><style>.cls-1{fill:#fff;}</style></defs><title>drop_4</title><g id="Layer_2" data-name="Layer 2"><g id="Layer_1-2" data-name="Layer 1"><path class="cls-1" d="M4.7,26.27C2.32,26.27.63,23.71.23,22c-.3-1.3,0-2.28,1-4.93C2.36,14,3.35,11.35,4.11,9.35,5,11.64,6,13.89,7,16.05c.25.53.47,1,.68,1.42C8.76,19.71,9.21,20.64,9,22c-.34,2-2,4.17-4.11,4.29Z"/><path d="M4.11,9.69C5,11.88,5.91,14,6.88,16.11c.25.52.48,1,.69,1.42C8.64,19.75,9.08,20.66,8.86,22c-.32,1.92-1.93,4.07-4,4.18H4.7c-2.31,0-4-2.51-4.35-4.21-.29-1.26,0-2.23,1-4.85s1.84-5,2.77-7.4m0-.69c-.78,2-1.81,4.76-3,8-.95,2.58-1.31,3.63-1,5C.55,24,2.33,26.4,4.7,26.4h.19c2.28-.13,3.9-2.47,4.22-4.39.27-1.64-.44-2.69-2-6-.76-1.62-1.84-4-3-7Z"/><path d="M3,22.46l.05.17a2.15,2.15,0,0,0,.6,1,2.41,2.41,0,0,0,1.21.54l.13,0a2.74,2.74,0,0,1-1.23.29,1.26,1.26,0,0,1-.91-.3,1.17,1.17,0,0,1-.18-1.09A1.42,1.42,0,0,1,3,22.46m0-.11H3a1.58,1.58,0,0,0-.21,1.95,1.34,1.34,0,0,0,1,.33,2.26,2.26,0,0,0,1.39-.39c0-.16-.79-.07-1.43-.64S3.19,22.35,3,22.35Z"/><path class="cls-1" d="M25.7,17.27c-2.38,0-4.07-2.56-4.47-4.3-.3-1.3,0-2.28,1-4.93C23.36,5,24.35,2.35,25.11.35,26,2.64,27,4.9,28,7.05c.25.53.47,1,.68,1.42C29.76,10.71,30.21,11.64,30,13c-.34,2-2,4.17-4.11,4.29Z"/><path d="M25.11.69C26,2.88,26.91,5,27.88,7.11c.25.52.48,1,.69,1.42,1.07,2.22,1.51,3.13,1.29,4.43-.32,1.92-1.93,4.07-4,4.18H25.7c-2.31,0-4-2.51-4.35-4.21-.29-1.26,0-2.23,1-4.85s1.84-5,2.77-7.4m0-.69c-.78,2-1.81,4.76-3,8-.95,2.58-1.31,3.63-1,5,.44,1.95,2.22,4.4,4.59,4.4h.19c2.28-.13,3.9-2.47,4.22-4.39.27-1.64-.44-2.69-2-6-.76-1.62-1.84-4-3-7Z"/><path d="M24,13.46l0,.17a2.15,2.15,0,0,0,.6,1,2.41,2.41,0,0,0,1.21.54l.13,0a2.74,2.74,0,0,1-1.23.29,1.26,1.26,0,0,1-.91-.3,1.17,1.17,0,0,1-.18-1.09,1.42,1.42,0,0,1,.33-.68m0-.11h0a1.58,1.58,0,0,0-.21,2,1.34,1.34,0,0,0,1,.33,2.26,2.26,0,0,0,1.39-.39c.05-.16-.79-.07-1.43-.64s-.54-1.25-.71-1.25Z"/><path class="cls-1" d="M19.7,33.27c-2.38,0-4.07-2.56-4.47-4.3-.3-1.3,0-2.28,1-4.93,1.13-3.08,2.12-5.69,2.88-7.69C20,18.64,21,20.89,22,23.05c.25.53.47,1,.68,1.42C23.76,26.71,24.21,27.64,24,29c-.34,2-2,4.17-4.11,4.29Z"/><path d="M19.11,16.69c.87,2.19,1.8,4.35,2.77,6.42.25.52.48,1,.69,1.42,1.07,2.22,1.51,3.13,1.29,4.43-.32,1.92-1.93,4.07-4,4.18H19.7c-2.31,0-4-2.51-4.35-4.21-.29-1.26,0-2.23,1-4.85s1.84-5,2.77-7.4m0-.69c-.78,2-1.81,4.76-3,8-.95,2.58-1.31,3.63-1,5,.44,1.95,2.22,4.4,4.59,4.4h.19c2.28-.13,3.9-2.47,4.22-4.39.27-1.64-.44-2.69-2-6-.76-1.62-1.84-4-3-7Z"/><path d="M18,29.46l0,.17a2.15,2.15,0,0,0,.6,1,2.41,2.41,0,0,0,1.21.54l.13,0a2.74,2.74,0,0,1-1.23.29,1.26,1.26,0,0,1-.91-.3,1.17,1.17,0,0,1-.18-1.09,1.42,1.42,0,0,1,.33-.68m0-.11h0a1.58,1.58,0,0,0-.21,1.95,1.34,1.34,0,0,0,1,.33,2.26,2.26,0,0,0,1.39-.39c.05-.16-.79-.07-1.43-.64s-.54-1.25-.71-1.25Z"/></g></g></svg>