<svg xmlns="http://www.w3.org/2000/svg" viewBox="0 0 137.33 147.04"><defs><style>.cls-1{fill:#fff;}</style></defs><title>drop</title><g id="Layer_2" data-name="Layer 2"><g id="Layer_1-2" data-name="Layer 1"><path class="cls-1" d="M47.47,146a41.77,41.77,0,0,1-12.81-1.95c-26-8.4-34.39-42.22-33.61-61.56C2.85,38.5,51.5,3.22,93.81,1.1,95.18,1,96.59,1,98,1c19.58,0,37.11,6,38.27,13.05.64,3.9-4.27,6.77-11.06,10.74-8.49,5-20.13,11.78-27.18,24.94-7.42,13.86-5.27,26.1-3.19,38,2,11.48,3.92,22.33-3,34C83.41,136,65.15,146,47.47,146Z"/><path d="M98,2c18.46,0,36.23,5.82,37.28,12.21.5,3.07-3.48,5.57-10.57,9.72-8.6,5-20.38,11.92-27.56,25.33-7.59,14.16-5.41,26.58-3.3,38.59,2,11.3,3.86,22-2.84,33.31C82.72,135.22,64.81,145,47.47,145A40.42,40.42,0,0,1,35,143.13C21,138.62,13.15,126.88,9,117.82a80.77,80.77,0,0,1-7-35.25C2.89,62,14,42.06,33.4,26.39,50.94,12.2,73.54,3.12,93.86,2.1,95.21,2,96.61,2,98,2m0-2c-1.43,0-2.85,0-4.25.1C52.52,2.17,1.93,36.51.06,82.49-.82,103.9,8.51,136.68,34.36,145a42.72,42.72,0,0,0,13.11,2c18,0,36.72-10.38,45.28-24.86C107,98,84.52,77.09,98.92,50.2c12.64-23.59,40-26.2,38.34-36.32C135.9,5.57,116.19,0,98,0Z"/><path d="M29.9,74.56h0A3.31,3.31,0,0,1,31,74.7a15.2,15.2,0,0,1-1.64,2.36,33.18,33.18,0,0,0-7.09,14.26c-1.45,7.16.14,13.07,1.09,16.6a24.75,24.75,0,0,1,.57,2.42c-1.21-.42-4.13-2.58-7-6.33-5.93-7.7-5.54-13.67-4.78-16.54C14.35,79.12,25,74.56,29.9,74.56m0-1c-4.8,0-16.3,4.46-18.74,13.66-3.08,11.62,10,24.19,13.12,24.19a.82.82,0,0,0,.28,0c1.79-.67-3.58-8.67-1.32-19.85s10.09-15.82,8.6-17.45a2.75,2.75,0,0,0-1.94-.51Z"/></g></g></svg>