<svg xmlns="http://www.w3.org/2000/svg" viewBox="0 0 86.73 72"><defs><style>.cls-1{fill:none;stroke:#fff;stroke-linecap:round;stroke-linejoin:round;stroke-width:0.75px;}.cls-2{fill:#fff;}.cls-3{fill:#fcfcfc;}</style></defs><title>jug_4</title><g id="Layer_2" data-name="Layer 2"><g id="Layer_1-2" data-name="Layer 1"><path class="cls-1" d="M76,44a52.85,52.85,0,0,1-1,21q-17.43-.34-35.47-.35-17.87,0-35.13.35A50,50,0,0,1,15.08,18.4q12.19-.09,24.7,0,12.66.08,25,.34A53.61,53.61,0,0,1,76,44Z"/><path class="cls-2" d="M73.16,42.09c1.87,3.51,1,8.35.19,13.82a41.81,41.81,0,0,1-1.34,6q-15.87-.22-32.31-.23-16.28,0-32,.23a56.4,56.4,0,0,1-1.62-10.5,38.34,38.34,0,0,1,.31-9.67A33.36,33.36,0,0,1,8.73,34a95.32,95.32,0,0,1,23-3c11.23-.08,18.44,1.87,30,5C68.58,37.86,71.61,39.17,73.16,42.09Z"/><path class="cls-3" d="M65.17,8.7H12.3a25.15,25.15,0,0,1,5.56-4.87C23.81,0,29.57,0,38.73,0c9.83,0,16.56.18,22.61,4.86A22.31,22.31,0,0,1,65.17,8.7Z"/><path class="cls-2" d="M64.82,16.35H14a3.14,3.14,0,0,1-3.13-3.13v-.69a8.14,8.14,0,0,0-2.09-2.09,7.89,7.89,0,0,0-2.09-1H64.82A3.13,3.13,0,0,1,68,12.53v.69A3.14,3.14,0,0,1,64.82,16.35Z"/><path class="cls-2" d="M74.74,72H4.34C2,72,0,70.53,0,68.74V68a3.7,3.7,0,0,1,1.52-2.4,4.78,4.78,0,0,1,2.82-.86h70.4c2.38,0,4.34,1.47,4.34,3.26v.72C79.08,70.53,77.12,72,74.74,72Z"/><path class="cls-2" d="M84.12,6.61H64.47A14.71,14.71,0,0,0,62,4.18,15.17,15.17,0,0,0,56.47,1.4H84.12A3.17,3.17,0,0,1,86.73,4C86.73,5.46,84.43,6.48,84.12,6.61Z"/><rect class="cls-2" x="63.25" y="20" width="41.74" height="5.22" rx="2.61" transform="translate(106.73 -61.51) rotate(90)"/></g></g></svg>