<svg xmlns="http://www.w3.org/2000/svg" viewBox="0 0 53.26 76.15"><defs><style>.cls-1,.cls-2{fill:#fff;}.cls-1,.cls-3{stroke:#000;stroke-miterlimit:10;stroke-width:0.5px;}.cls-3{fill:none;}</style></defs><title>juggie_1</title><g id="Layer_2" data-name="Layer 2"><g id="Layer_1-2" data-name="Layer 1"><path class="cls-1" d="M15.8,8.37l8.13.37,2.13-3.68.28-2.3c.92-1.58.58-2.83,2.47-2.44s3.13.06,4.51,1.92,1.65,2,.73,3.58A5.46,5.46,0,0,1,31.74,8L29.6,11.68q1.47,3,2.92,6"/><path class="cls-2" d="M16.22,8.46l7,5.87,9.41,3.43"/><path d="M16,8.63l3.77,3.18,1.88,1.59a6.24,6.24,0,0,0,1.65,1.26L32.52,18c.31.11.44-.37.14-.48L23.82,14.3a7,7,0,0,1-2-1.41l-1.78-1.51L16.4,8.28c-.25-.21-.6.14-.36.35Z"/><line class="cls-1" x1="13.3" y1="18.43" x2="13.41" y2="18.37"/><path class="cls-3" d="M32.56,18.07l.08.05,8,.76.92,3.95a4.34,4.34,0,0,0,1.82.92,2.11,2.11,0,0,0,.91,0s.32-.15.61-.31c.74-.39-.85-3.44,0-4.56.65-.84,2.71-.6,4.11.15,2.06,1.12,2.69,3.39,3.34,5.78.44,1.61,1.11,4.17,0,6.69A7.22,7.22,0,0,1,51.49,33c-1.3,1.7-3,6.29-4.87,18.25l-2.12.91h-.92l-.3-10.34s2-9.58,2.74-11a2.07,2.07,0,0,0,.3-1.52,2.06,2.06,0,0,0-1.22-1.21,2.47,2.47,0,0,0-2.12,0c-1,.58-.61,1.73-1.53,2.43s-1.85.23-2.43.3c-1.43.18-2.89,3.62-3.65,15.82L34,47.9l-1,5-.37,1.71,1.82,1.22q2.9,10,5.78,20.07L5.12,75.75l5.17-20.07,1.21-1.22V52.94l-.91-6.39L9.37,45a17.33,17.33,0,0,0-.3-7.6A18.66,18.66,0,0,0,.25,26.48V23.75L4.81,20.1,13,18.58l.28-.15"/><line class="cls-3" x1="11.81" y1="54.31" x2="32.79" y2="54.31"/><line class="cls-3" x1="13.48" y1="75.9" x2="16.52" y2="54.31"/><line class="cls-3" x1="30.51" y1="75.9" x2="27.47" y2="54.31"/><line class="cls-3" x1="16.52" y1="54.31" x2="13.17" y2="18.42"/><path class="cls-3" d="M27.47,54.31,33,17.9"/><path d="M13.45,18.76l4.87.71,2.44.35a12.63,12.63,0,0,0,2.29.32,18.77,18.77,0,0,0,2.33-.36l2.41-.37,5-.77c.32-.05.18-.53-.13-.48l-4.72.73c-1.55.24-3.14.61-4.71.73a11.7,11.7,0,0,1-2.42-.3L18.45,19l-4.87-.7c-.31-.05-.45.43-.13.48Z"/></g></g></svg>