<svg xmlns="http://www.w3.org/2000/svg" viewBox="0 0 53.26 73.29"><defs><style>.cls-1,.cls-2{fill:#fff;}.cls-1{stroke:#000;stroke-miterlimit:10;stroke-width:0.5px;}</style></defs><title>juggie_4_1</title><g id="Layer_2" data-name="Layer 2"><g id="Layer_1-2" data-name="Layer 1"><line class="cls-1" x1="13.3" y1="15.58" x2="13.41" y2="15.52"/><line class="cls-1" x1="13.24" y1="15.61" x2="13.3" y2="15.58"/><path class="cls-1" d="M52.4,22c-.65-2.39-1.28-4.65-3.34-5.77-1.4-.76-3.46-1-4.11-.16-.85,1.12.74,4.17,0,4.57-.29.16-.61.3-.61.3a2,2,0,0,1-.91,0A4.47,4.47,0,0,1,41.61,20l-.92-4-8-.76L23,18,13,15.72,4.81,17.24.25,20.89v2.74A18.66,18.66,0,0,1,9.07,34.57a17.38,17.38,0,0,1,.3,7.61l1.22,1.52.91,6.38V51.6l-1.21,1.22L5.12,72.89,40.24,73Q37.35,63,34.46,53l-1.82-1.21c.12-.58.25-1.15.37-1.72.34-1.66.67-3.33,1-5l1.36-1.19C36.13,31.66,37.59,28.21,39,28c.58-.08,1.6.33,2.43-.31S42,25.88,43,25.3a2.47,2.47,0,0,1,2.12,0,2.05,2.05,0,0,1,1.22,1.22A2.08,2.08,0,0,1,46,28C45.32,29.4,43.28,39,43.28,39l.3,10.34h.92l2.12-.91c1.9-11.95,3.57-16.54,4.87-18.25a6.94,6.94,0,0,0,.91-1.52C53.51,26.12,52.84,23.56,52.4,22Z"/><line class="cls-1" x1="11.81" y1="51.45" x2="32.79" y2="51.45"/><line class="cls-1" x1="13.48" y1="73.04" x2="16.52" y2="51.45"/><line class="cls-1" x1="30.51" y1="73.04" x2="27.47" y2="51.45"/><line class="cls-1" x1="16.52" y1="51.45" x2="13.17" y2="15.57"/><path class="cls-1" d="M27.47,51.45,33,15"/><path class="cls-1" d="M44.35,0l-1.3,8,3.42,2.54,2.25.54c1.47,1.09,2.74.9,2.14,2.72s-.41,3.11-2.42,4.27-2.18,1.41-3.64.32a5.44,5.44,0,0,1-1.9-2.55l-3.41-2.54-6.33,2.22"/><path class="cls-2" d="M44.21.44,37.58,6.69l-4.47,9"/><path d="M44,.27,40.45,3.64l-1.7,1.61A6.51,6.51,0,0,0,37.2,6.89l-4.31,8.63c-.14.29.29.54.43.25l4.2-8.41a7.35,7.35,0,0,1,1.67-1.85l1.7-1.6L44.39.62C44.63.4,44.27.05,44,.27Z"/></g></g></svg>