<svg xmlns="http://www.w3.org/2000/svg" viewBox="0 0 53.26 77.26"><defs><style>.cls-1,.cls-2{fill:#fff;}.cls-1{stroke:#000;stroke-miterlimit:10;stroke-width:0.5px;}</style></defs><title>Asset 51</title><g id="Layer_2" data-name="Layer 2"><g id="Layer_1-2" data-name="Layer 1"><line class="cls-1" x1="13.3" y1="19.54" x2="13.41" y2="19.48"/><line class="cls-1" x1="13.24" y1="19.57" x2="13.3" y2="19.54"/><path class="cls-1" d="M52.4,25.92c-.65-2.39-1.28-4.66-3.34-5.78-1.4-.75-3.46-1-4.11-.15-.85,1.12.74,4.16,0,4.56-.29.16-.61.3-.61.3a1.82,1.82,0,0,1-.91,0,4.35,4.35,0,0,1-1.82-.91l-.92-4-8-.76L23,22,13,19.68,4.81,21.2.25,24.85v2.74a18.66,18.66,0,0,1,8.82,11,17.33,17.33,0,0,1,.3,7.6l1.22,1.52.91,6.39v1.52l-1.21,1.21L5.12,76.85,40.24,77q-2.9-10-5.78-20.07l-1.82-1.22c.12-.57.25-1.14.37-1.71.34-1.67.67-3.34,1-5l1.36-1.2C36.13,35.62,37.59,32.18,39,32c.58-.07,1.6.33,2.43-.3S42,29.84,43,29.26a2.55,2.55,0,0,1,2.12,0,2.05,2.05,0,0,1,1.22,1.22A2.08,2.08,0,0,1,46,32c-.7,1.37-2.74,11-2.74,11l.3,10.34h.92l2.12-.92c1.9-11.95,3.57-16.54,4.87-18.24a7.22,7.22,0,0,0,.91-1.52C53.51,30.09,52.84,27.53,52.4,25.92Z"/><line class="cls-1" x1="11.81" y1="55.42" x2="32.79" y2="55.42"/><line class="cls-1" x1="13.48" y1="77.01" x2="16.52" y2="55.42"/><line class="cls-1" x1="30.51" y1="77.01" x2="27.47" y2="55.42"/><line class="cls-1" x1="16.52" y1="55.42" x2="13.17" y2="19.53"/><path class="cls-1" d="M27.47,55.42,33,19"/><path class="cls-1" d="M30.45.14l4.62,6.69,4.22-.53,2-1.17c1.81-.23,2.6-1.25,3.43.49s1.85,2.52,1.21,4.75-.6,2.53-2.41,2.75a5.45,5.45,0,0,1-3.13-.52l-4.23.53-3,6"/><path class="cls-2" d="M30.63.53c-.16,3-.31,6.06-.47,9.1q1.48,4.77,3,9.56"/><path d="M30.38.53l-.25,4.92L30,7.78A6.59,6.59,0,0,0,30,10q1.44,4.61,2.86,9.21c.1.31.58.18.49-.13l-2.79-9a7.11,7.11,0,0,1-.08-2.48l.12-2.34L30.88.53c0-.32-.49-.32-.5,0Z"/></g></g></svg>