<svg xmlns="http://www.w3.org/2000/svg" viewBox="0 0 53.26 71.87"><defs><style>.cls-1,.cls-3{fill:#fff;}.cls-1,.cls-2{stroke:#000;stroke-miterlimit:10;stroke-width:0.5px;}.cls-2{fill:none;}</style></defs><title>juggie_10</title><g id="Layer_2" data-name="Layer 2"><g id="Layer_1-2" data-name="Layer 1"><line class="cls-1" x1="13.3" y1="14.16" x2="13.41" y2="14.1"/><path class="cls-2" d="M32.56,13.8l.08,0,8,.76.92,3.95a4.47,4.47,0,0,0,1.82.91,2,2,0,0,0,.91,0s.32-.14.61-.3c.74-.4-.85-3.45,0-4.56.65-.85,2.71-.61,4.11.15,2.06,1.12,2.69,3.38,3.34,5.78.44,1.61,1.11,4.17,0,6.69a7.52,7.52,0,0,1-.91,1.52c-1.3,1.7-3,6.29-4.87,18.24l-2.12.91h-.92l-.3-10.34S45.32,28,46,26.62a2.08,2.08,0,0,0,.3-1.52,2.05,2.05,0,0,0-1.22-1.22,2.55,2.55,0,0,0-2.12,0c-1,.58-.61,1.73-1.53,2.43s-1.85.24-2.43.31c-1.43.18-2.89,3.62-3.65,15.81L34,43.62l-1,5-.37,1.72,1.82,1.21q2.9,10,5.78,20.07L5.12,71.47,10.29,51.4l1.21-1.22V48.66l-.91-6.38L9.37,40.76a17.33,17.33,0,0,0-.3-7.6A18.66,18.66,0,0,0,.25,22.21V19.47l4.56-3.65L13,14.3l.28-.14"/><line class="cls-2" x1="11.81" y1="50.03" x2="32.79" y2="50.03"/><line class="cls-2" x1="13.48" y1="71.62" x2="16.52" y2="50.03"/><line class="cls-2" x1="30.51" y1="71.62" x2="27.47" y2="50.03"/><line class="cls-2" x1="16.52" y1="50.03" x2="13.17" y2="14.15"/><path class="cls-2" d="M27.47,50,33,13.62"/><path d="M13.45,14.48l4.87.71,2.44.36a14.68,14.68,0,0,0,2.29.32,18.77,18.77,0,0,0,2.33-.36l2.41-.38,5-.77c.32,0,.18-.53-.13-.48l-4.72.73c-1.55.24-3.14.61-4.71.73a11,11,0,0,1-2.42-.29l-2.32-.34L13.58,14c-.31-.05-.45.44-.13.48Z"/><path class="cls-1" d="M13.43,14.62l7.25-3.68,0-4.26-.89-2.13c0-1.83-.88-2.75,1-3.34S23.53-.28,25.65.65s2.42.94,2.4,2.77a5.4,5.4,0,0,1-.94,3l0,4.25,5.51,3.81"/><path class="cls-3" d="M13.83,14.49l9,1.69,9.87-1.66"/><path d="M13.77,14.73l4.84.91L21,16.1a6.33,6.33,0,0,0,2.06.28c3.22-.53,6.43-1.08,9.64-1.62.31,0,.18-.53-.14-.48l-9.27,1.56a7,7,0,0,1-2.4-.27l-2.3-.43-4.72-.89c-.31-.06-.45.42-.13.48Z"/></g></g></svg>