<svg xmlns="http://www.w3.org/2000/svg" viewBox="0 0 53.26 76.19"><defs><style>.cls-1,.cls-2{fill:#fff;}.cls-1{stroke:#000;stroke-miterlimit:10;stroke-width:0.5px;}</style></defs><title>Asset 50</title><g id="Layer_2" data-name="Layer 2"><g id="Layer_1-2" data-name="Layer 1"><line class="cls-1" x1="13.3" y1="18.47" x2="13.41" y2="18.41"/><line class="cls-1" x1="13.24" y1="18.5" x2="13.3" y2="18.47"/><path class="cls-1" d="M52.4,24.85c-.65-2.39-1.28-4.66-3.34-5.78-1.4-.75-3.46-1-4.11-.15-.85,1.12.74,4.16,0,4.56-.29.16-.61.3-.61.3a1.82,1.82,0,0,1-.91,0,4.24,4.24,0,0,1-1.82-.91l-.92-3.95-8-.76L23,20.94,13,18.62,4.81,20.14.25,23.78v2.74a18.66,18.66,0,0,1,8.82,11,17.33,17.33,0,0,1,.3,7.6l1.22,1.52L11.5,53V54.5l-1.21,1.21L5.12,75.78l35.12.16q-2.9-10-5.78-20.07l-1.82-1.22c.12-.57.25-1.14.37-1.71.34-1.67.67-3.34,1-5l1.36-1.2c.76-12.19,2.22-15.63,3.65-15.81.58-.07,1.6.33,2.43-.3S42,28.77,43,28.19a2.55,2.55,0,0,1,2.12,0,2.11,2.11,0,0,1,1.22,1.22,2.08,2.08,0,0,1-.3,1.52c-.7,1.37-2.74,11-2.74,11l.3,10.34h.92l2.12-.91c1.9-12,3.57-16.55,4.87-18.25a7.22,7.22,0,0,0,.91-1.52C53.51,29,52.84,26.46,52.4,24.85Z"/><line class="cls-1" x1="11.81" y1="54.35" x2="32.79" y2="54.35"/><line class="cls-1" x1="13.48" y1="75.94" x2="16.52" y2="54.35"/><line class="cls-1" x1="30.51" y1="75.94" x2="27.47" y2="54.35"/><line class="cls-1" x1="16.52" y1="54.35" x2="13.17" y2="18.46"/><path class="cls-1" d="M27.47,54.35,33,17.94"/><path class="cls-1" d="M18.45,6.15l7.93,1.76,2.74-3.27.67-2.21C31,1,30.85-.26,32.64.45s3.07.59,4.12,2.66,1.27,2.26.1,3.66a5.4,5.4,0,0,1-2.65,1.74l-2.74,3.27c.62,2.14,1.23,4.29,1.85,6.44"/><path class="cls-2" d="M18.84,6.31l5.85,7,8.68,5"/><path d="M18.67,6.48l3.16,3.78,1.5,1.79a6.55,6.55,0,0,0,1.55,1.64l8.37,4.8a.25.25,0,0,0,.25-.43l-8.15-4.68A7.22,7.22,0,0,1,23.6,11.6L22.1,9.81,19,6.13c-.21-.25-.56.11-.35.35Z"/></g></g></svg>