<svg xmlns="http://www.w3.org/2000/svg" viewBox="0 0 53.26 75.25"><defs><style>.cls-1,.cls-2{fill:#fff;}.cls-1{stroke:#000;stroke-miterlimit:10;stroke-width:0.5px;}</style></defs><title>Asset 49</title><g id="Layer_2" data-name="Layer 2"><g id="Layer_1-2" data-name="Layer 1"><line class="cls-1" x1="13.3" y1="17.53" x2="13.41" y2="17.47"/><line class="cls-1" x1="13.24" y1="17.56" x2="13.3" y2="17.53"/><path class="cls-1" d="M52.4,23.91c-.65-2.39-1.28-4.66-3.34-5.78-1.4-.76-3.46-1-4.11-.15-.85,1.12.74,4.16,0,4.56-.29.16-.61.3-.61.3a1.82,1.82,0,0,1-.91,0,4.35,4.35,0,0,1-1.82-.91L40.69,18l-8-.76L23,20,13,17.67,4.81,19.19.25,22.84v2.74a18.66,18.66,0,0,1,8.82,11,17.33,17.33,0,0,1,.3,7.6l1.22,1.52L11.5,52v1.52l-1.21,1.21L5.12,74.84,40.24,75q-2.9-10-5.78-20.07l-1.82-1.22c.12-.57.25-1.14.37-1.71.34-1.67.67-3.34,1-5l1.36-1.2C36.13,33.61,37.59,30.17,39,30c.58-.07,1.6.33,2.43-.3S42,27.83,43,27.25a2.55,2.55,0,0,1,2.12,0,2.05,2.05,0,0,1,1.22,1.22A2.08,2.08,0,0,1,46,30c-.7,1.37-2.74,11-2.74,11l.3,10.34h.92l2.12-.92c1.9-12,3.57-16.54,4.87-18.24a7.52,7.52,0,0,0,.91-1.52C53.51,28.08,52.84,25.52,52.4,23.91Z"/><line class="cls-1" x1="11.81" y1="53.4" x2="32.79" y2="53.4"/><line class="cls-1" x1="13.48" y1="75" x2="16.52" y2="53.4"/><line class="cls-1" x1="30.51" y1="75" x2="27.47" y2="53.4"/><line class="cls-1" x1="16.52" y1="53.4" x2="13.17" y2="17.52"/><path class="cls-1" d="M27.47,53.4,33,17"/><path class="cls-1" d="M15.63,9.37l8.12-.3,1.83-3.85.08-2.31C26.44,1.26,26,.05,27.92.28S31,.08,32.58,1.81s1.8,1.87,1,3.52a5.4,5.4,0,0,1-2.12,2.35l-1.83,3.85,3.42,5.77"/><path class="cls-2" d="M16.05,9.43l7.42,5.28,9.67,2.63"/><path d="M15.93,9.64l4,2.86,1.9,1.36a7,7,0,0,0,1.92,1.19l9.31,2.53a.25.25,0,0,0,.13-.48l-9.07-2.47A7,7,0,0,1,22,13.35L20.09,12,16.18,9.21c-.26-.18-.51.25-.25.43Z"/></g></g></svg>