<svg xmlns="http://www.w3.org/2000/svg" viewBox="0 0 53.26 76.1"><defs><style>.cls-1,.cls-2{fill:#fff;}.cls-1,.cls-3{stroke:#000;stroke-miterlimit:10;stroke-width:0.5px;}.cls-3{fill:none;}</style></defs><title>juggie_2_1</title><g id="Layer_2" data-name="Layer 2"><g id="Layer_1-2" data-name="Layer 1"><path class="cls-1" d="M20.13,3.72l7.5,3.13L30.9,4.12,32,2.06C33.35.89,33.47-.4,35.1.62S38,1.74,38.69,4s.86,2.45-.54,3.62a5.48,5.48,0,0,1-2.92,1.25L32,11.56q.33,3.33.68,6.67"/><path class="cls-2" d="M20.49,3.94,25,11.85l7.67,6.44"/><path d="M20.28,4.07l2.44,4.28,1.16,2a6.68,6.68,0,0,0,1.24,1.88l7.38,6.21c.25.21.6-.15.36-.35l-7.2-6.05A7.13,7.13,0,0,1,24.25,10L23.09,8,20.71,3.82a.25.25,0,0,0-.43.25Z"/><line class="cls-1" x1="13.3" y1="18.39" x2="13.41" y2="18.33"/><path class="cls-3" d="M32.56,18l.08,0,8,.76.92,4a4.47,4.47,0,0,0,1.82.91,2,2,0,0,0,.91,0s.32-.14.61-.3c.74-.4-.85-3.45,0-4.57.65-.84,2.71-.6,4.11.16,2.06,1.12,2.69,3.38,3.34,5.77.44,1.61,1.11,4.17,0,6.69A7.41,7.41,0,0,1,51.49,33c-1.3,1.7-3,6.29-4.87,18.24l-2.12.91h-.92l-.3-10.34s2-9.57,2.74-10.94a2.08,2.08,0,0,0,.3-1.52,2.05,2.05,0,0,0-1.22-1.22,2.47,2.47,0,0,0-2.12,0c-1,.58-.61,1.73-1.53,2.43s-1.85.23-2.43.31c-1.43.17-2.89,3.62-3.65,15.81L34,47.85l-1,5-.37,1.72,1.82,1.21q2.9,10,5.78,20.07L5.12,75.7l5.17-20.07,1.21-1.22V52.89l-.91-6.38L9.37,45a17.38,17.38,0,0,0-.3-7.61A18.66,18.66,0,0,0,.25,26.44V23.7l4.56-3.65L13,18.53l.28-.14"/><line class="cls-3" x1="11.81" y1="54.26" x2="32.79" y2="54.26"/><line class="cls-3" x1="13.48" y1="75.85" x2="16.52" y2="54.26"/><line class="cls-3" x1="30.51" y1="75.85" x2="27.47" y2="54.26"/><line class="cls-3" x1="16.52" y1="54.26" x2="13.17" y2="18.38"/><path class="cls-3" d="M27.47,54.26,33,17.85"/><path d="M13.45,18.71l4.87.71,2.44.35a13.59,13.59,0,0,0,2.29.33,23.45,23.45,0,0,0,2.33-.36l2.41-.38,5-.77c.32-.05.18-.53-.13-.48l-4.72.73c-1.55.24-3.14.61-4.71.73a10.48,10.48,0,0,1-2.42-.3l-2.32-.33-4.87-.71c-.31-.05-.45.43-.13.48Z"/></g></g></svg>