<svg xmlns="http://www.w3.org/2000/svg" viewBox="0 0 53.26 74.7"><defs><style>.cls-1,.cls-3{fill:#fff;}.cls-1,.cls-2{stroke:#000;stroke-miterlimit:10;stroke-width:0.5px;}.cls-2{fill:none;}</style></defs><title>juggie_4</title><g id="Layer_2" data-name="Layer 2"><g id="Layer_1-2" data-name="Layer 1"><line class="cls-1" x1="13.3" y1="16.98" x2="13.41" y2="16.93"/><path class="cls-2" d="M32.56,16.62l.08.05,8,.76.92,4a4.47,4.47,0,0,0,1.82.91,2,2,0,0,0,.91,0s.32-.15.61-.31c.74-.39-.85-3.44,0-4.56.65-.84,2.71-.6,4.11.15,2.06,1.12,2.69,3.39,3.34,5.78.44,1.61,1.11,4.17,0,6.69a7.22,7.22,0,0,1-.91,1.52c-1.3,1.7-3,6.29-4.87,18.25l-2.12.91h-.92l-.3-10.34s2-9.58,2.74-10.95a2.07,2.07,0,0,0,.3-1.52,2.06,2.06,0,0,0-1.22-1.21,2.47,2.47,0,0,0-2.12,0c-1,.58-.61,1.73-1.53,2.43s-1.85.23-2.43.3c-1.43.18-2.89,3.62-3.65,15.82L34,46.45l-1,5-.37,1.71,1.82,1.22q2.9,10,5.78,20.07L5.12,74.3l5.17-20.07L11.5,53V51.49l-.91-6.39L9.37,43.58a17.33,17.33,0,0,0-.3-7.6A18.69,18.69,0,0,0,.25,25V22.3l4.56-3.65L13,17.13,13.3,17"/><line class="cls-2" x1="11.81" y1="52.86" x2="32.79" y2="52.86"/><line class="cls-2" x1="13.48" y1="74.45" x2="16.52" y2="52.86"/><line class="cls-2" x1="30.51" y1="74.45" x2="27.47" y2="52.86"/><line class="cls-2" x1="16.52" y1="52.86" x2="13.17" y2="16.98"/><path class="cls-2" d="M27.47,52.86,33,16.45"/><path d="M13.45,17.31l4.87.71,2.44.35a13.59,13.59,0,0,0,2.29.33,20.89,20.89,0,0,0,2.33-.37L27.79,18l5-.77c.32-.05.18-.53-.13-.48l-4.72.73c-1.55.24-3.14.61-4.71.73a11.7,11.7,0,0,1-2.42-.3l-2.32-.33-4.87-.71c-.31,0-.45.43-.13.48Z"/><path class="cls-1" d="M43,0l-.6,8.11L46,10.36l2.29.34c1.56,1,2.81.67,2.37,2.54s-.14,3.12-2,4.46-2,1.59-3.6.63A5.5,5.5,0,0,1,42.93,16l-3.62-2.24L33.2,16.48"/><path class="cls-3" d="M42.9.43l-6.07,6.8Q35,11.88,33.15,16.54"/><path d="M42.72.26,39.44,3.93,37.8,5.77a6.1,6.1,0,0,0-1.3,1.62q-1.8,4.53-3.59,9.08c-.12.3.36.43.48.14l3.46-8.75a6.83,6.83,0,0,1,1.47-1.92l1.56-1.75L43.07.61c.22-.24-.13-.59-.35-.35Z"/></g></g></svg>