<svg xmlns="http://www.w3.org/2000/svg" viewBox="0 0 53.26 76.84"><defs><style>.cls-1,.cls-2{fill:#fff;}.cls-1,.cls-3{stroke:#000;stroke-miterlimit:10;stroke-width:0.5px;}.cls-3{fill:none;}</style></defs><title>juggie_3</title><g id="Layer_2" data-name="Layer 2"><g id="Layer_1-2" data-name="Layer 1"><path class="cls-1" d="M28.56.15l5,6.41,4.19-.78L39.68,4.5c1.8-.34,2.53-1.4,3.46.28s2,2.41,1.48,4.67-.45,2.56-2.24,2.9A5.45,5.45,0,0,1,39.22,12L35,12.78l-2.68,6.15"/><path class="cls-2" d="M28.77.53c0,3,.05,6.07.07,9.11q1.77,4.68,3.53,9.37"/><path d="M28.52.53l0,4.92V7.79a6.83,6.83,0,0,0,.16,2.26q1.69,4.52,3.4,9c.11.29.59.16.48-.14l-3.31-8.8a7,7,0,0,1-.23-2.47V5.33l0-4.8c0-.32-.51-.32-.5,0Z"/><line class="cls-1" x1="13.3" y1="19.12" x2="13.41" y2="19.07"/><path class="cls-3" d="M32.56,18.76l.08,0,8,.76.92,4a4.47,4.47,0,0,0,1.82.91,2,2,0,0,0,.91,0s.32-.15.61-.31c.74-.39-.85-3.44,0-4.56.65-.84,2.71-.6,4.11.15,2.06,1.12,2.69,3.39,3.34,5.78.44,1.61,1.11,4.17,0,6.69a7.22,7.22,0,0,1-.91,1.52c-1.3,1.7-3,6.3-4.87,18.25l-2.12.91h-.92l-.3-10.34s2-9.58,2.74-11a2.07,2.07,0,0,0,.3-1.52,2.06,2.06,0,0,0-1.22-1.21,2.47,2.47,0,0,0-2.12,0c-1,.58-.61,1.73-1.53,2.43s-1.85.23-2.43.3c-1.43.18-2.89,3.62-3.65,15.82L34,48.59l-1,5-.37,1.71,1.82,1.22q2.9,10,5.78,20.07L5.12,76.44l5.17-20.07,1.21-1.22V53.63l-.91-6.38L9.37,45.72a17.33,17.33,0,0,0-.3-7.6A18.63,18.63,0,0,0,.25,27.18V24.44l4.56-3.65L13,19.27l.28-.15"/><line class="cls-3" x1="11.81" y1="55" x2="32.79" y2="55"/><line class="cls-3" x1="13.48" y1="76.59" x2="16.52" y2="55"/><line class="cls-3" x1="30.51" y1="76.59" x2="27.47" y2="55"/><line class="cls-3" x1="16.52" y1="55" x2="13.17" y2="19.12"/><path class="cls-3" d="M27.47,55,33,18.59"/><path d="M13.45,19.45l4.87.71,2.44.35a13.59,13.59,0,0,0,2.29.33,23.45,23.45,0,0,0,2.33-.36l2.41-.38,5-.77c.32,0,.18-.53-.13-.48l-4.72.73c-1.55.24-3.14.61-4.71.73a11.05,11.05,0,0,1-2.42-.3l-2.32-.33L13.58,19c-.31,0-.45.43-.13.48Z"/></g></g></svg>