<svg xmlns="http://www.w3.org/2000/svg" viewBox="0 0 63.32 85.11"><defs><style>.cls-1{fill:#fff;}.cls-2{fill:none;stroke:#000;stroke-miterlimit:10;stroke-width:0.75px;}</style></defs><title>milk_8</title><g id="Layer_2" data-name="Layer 2"><g id="Layer_1-2" data-name="Layer 1"><polygon class="cls-1" points="16.69 6.29 19.8 0.39 48.3 2.17 46.15 7.96 16.69 6.29"/><path d="M20,.78l5,.31L47.77,2.51l-.25.68L45.9,7.57,17.29,6l1.95-3.7L20,.78M19.58,0q-1.74,3.32-3.5,6.63L46.41,8.35C47.21,6.18,48,4,48.83,1.83L19.58,0Z"/><polygon class="cls-1" points="2.5 76.88 0.38 20.74 13.63 6.1 11.4 1.67 42.66 3.42 45.64 7.98 40.21 22.09 43.06 84.63 2.5 76.88"/><path d="M12,2.08l30.42,1.7.69,1.07L45.22,8l-1.45,3.76L39.89,21.88l-.06.15v.16l1.9,41.63.93,20.35L29.83,81.72l-27-5.16-2-52.28-.13-3.4,6-6.57,7-7.76.34-.38-.23-.46L12,2.08m-1.25-.82L13.18,6Q6.59,13.33,0,20.6L2.13,77.19l41.33,7.9Q42,53.62,40.59,22.15,43.32,15,46.06,7.94q-1.61-2.45-3.19-4.89L10.78,1.26Z"/><polygon class="cls-1" points="40.97 22.22 46.23 8.53 60.61 19.08 62.93 80.54 43.32 84.65 40.97 22.22"/><path d="M46.4,9.12,60.24,19.27l1.17,31,1.13,29.93-18.86,4L41.34,22.28l3.83-10L46.4,9.12m-.34-1.18q-2.75,7.11-5.47,14.21l2.37,63,20.36-4.27L61,18.88,46.06,7.94Z"/><path class="cls-2" d="M1.38,57.16c3.41-2.88,7.77-5.54,11.84-4.45C21,54.77,21,68.52,27.89,70.17c2.91.69,7.33-.71,14.17-9"/><path class="cls-2" d="M42.06,61.13c.89-4.42,2.32-8.89,4.65-9.19,3.74-.47,6.73,10.06,10.37,9.62,1.68-.2,3.57-2.73,5.07-11.7"/><path class="cls-1" d="M49.57,19.44a2.81,2.81,0,0,1-.11-5.62h.11a2.82,2.82,0,0,1,2.06,4.72,2.76,2.76,0,0,1-2,.89Z"/><path d="M49.57,14.2a2.43,2.43,0,0,1,.09,4.86h-.09a2.42,2.42,0,0,1-2.43-2.34A2.37,2.37,0,0,1,47.78,15a2.42,2.42,0,0,1,1.7-.78h.09m0-.75h-.12a3.18,3.18,0,0,0,.12,6.36h.12a3.18,3.18,0,0,0-.12-6.36Z"/><path class="cls-1" d="M50.18,18.78a2.81,2.81,0,0,1-.11-5.62h.11a2.81,2.81,0,0,1,.1,5.61Z"/><path d="M50.18,13.54A2.43,2.43,0,0,1,52,17.62a2.38,2.38,0,0,1-1.69.78h-.09a2.43,2.43,0,0,1-2.43-2.34,2.34,2.34,0,0,1,.65-1.74,2.38,2.38,0,0,1,1.69-.78h.09m0-.75h-.12a3.18,3.18,0,0,0,.12,6.36h.12a3.18,3.18,0,0,0-.12-6.36Z"/><line class="cls-2" x1="0.5" y1="20.66" x2="40.59" y2="22.15"/><line class="cls-2" x1="40.11" y1="22.67" x2="60.98" y2="18.88"/></g></g></svg>