<svg xmlns="http://www.w3.org/2000/svg" viewBox="0 0 88.46 84.17"><defs><style>.cls-1{fill:#fff;}.cls-2{fill:none;stroke:#000;stroke-miterlimit:10;stroke-width:0.75px;}</style></defs><title>milk_6</title><g id="Layer_2" data-name="Layer 2"><g id="Layer_1-2" data-name="Layer 1"><path class="cls-1" d="M75.8,79.32c-2.24,0-3.84-2.44-4.22-4.1-.28-1.24,0-2.14,1-4.79s1.92-5.18,2.65-7.09c.83,2.09,1.72,4.15,2.66,6.12.25.53.47,1,.68,1.43,1.06,2.19,1.5,3.09,1.28,4.35-.31,1.88-1.88,4-3.86,4.08Z"/><path d="M75.23,64.37c.73,1.79,1.5,3.55,2.31,5.25.25.53.47,1,.68,1.43,1,2.18,1.45,3,1.26,4.13C79.19,76.91,77.76,78.85,76,79H75.8c-2,0-3.5-2.28-3.85-3.81-.26-1.14,0-2,1-4.58.76-2.07,1.53-4.14,2.31-6.19m0-2.07c-.79,2-1.81,4.76-3,8-1,2.58-1.32,3.63-1,5,.44,2,2.21,4.4,4.58,4.4H76c2.28-.12,3.89-2.47,4.22-4.39.27-1.63-.44-2.69-2-6-.77-1.61-1.84-4-3-7Z"/><path d="M74.13,75.65h0a1.58,1.58,0,0,0-.22,1.95,1.33,1.33,0,0,0,1,.33,2.24,2.24,0,0,0,1.39-.39c0-.15-.78-.07-1.42-.64s-.54-1.25-.71-1.25Z"/><polygon class="cls-1" points="69.44 8.03 76.11 8.01 87.91 34.01 81.79 34.83 69.44 8.03"/><path d="M75.87,8.38l9.48,20.91,2,4.42L82,34.42,70,8.4h.7l5.14,0m.48-.75-7.49,0,12.7,27.59,6.9-.92L76.35,7.63Z"/><polygon class="cls-1" points="0.45 28.61 49.03 0.4 68.17 5.24 71.04 1.19 84.16 29.61 81.53 34.39 66.52 36.21 12.63 68.07 0.45 28.61"/><path d="M49.09.8,67.83,5.54l.5.13.3-.42L71,1.94,83.74,29.6l-.94,1.71L81.29,34l-2.15.26L66.55,35.83l-.15,0-.14.08L27,59.12,12.84,67.51.89,28.78,49.09.8M49,0,0,28.43q6.21,20.1,12.41,40.21L66.64,36.57l15.12-1.84,2.82-5.1L71.11.45,68,4.81,49,0Z"/><polygon class="cls-1" points="12.73 68.3 66.77 36.94 81.32 35.17 78.75 52.81 25.56 83.69 12.73 68.3"/><path d="M80.88,35.6l-.95,6.51L78.41,52.58l-33,19.13-19.8,11.5-4.42-5.29L13.3,68.4,36.55,54.91,66.89,37.3,80,35.71l.9-.11m.88-.87L66.64,36.57,12.16,68.2l13.32,16L79.1,53.05q1.34-9.16,2.66-18.32Z"/><path class="cls-2" d="M17.34,18.37c4.14,1.66,8.53,4.26,9.48,8.37,1.8,7.79-10.31,14.28-8.54,21.14.75,2.9,4.06,6.15,14.63,8.27"/><path class="cls-2" d="M32.91,56.15c4.32-1.28,8.94-2.12,10.3-.19,2.17,3.08-5.72,10.66-3.63,13.67,1,1.38,4.08,1.87,12.71-1"/><path class="cls-1" d="M75.74,44.72a2.81,2.81,0,1,1,1.4-.38A2.75,2.75,0,0,1,75.74,44.72Z"/><path d="M75.73,39.48h0a2.46,2.46,0,0,1,2.11,1.21,2.44,2.44,0,0,1,.24,1.85A2.4,2.4,0,0,1,77,44a2.47,2.47,0,0,1-1.21.33,2.44,2.44,0,0,1-2.11-1.22,2.41,2.41,0,0,1-.25-1.84,2.44,2.44,0,0,1,1.13-1.48,2.38,2.38,0,0,1,1.22-.33m0-.75a3.18,3.18,0,1,0,2.76,1.59,3.17,3.17,0,0,0-2.76-1.59Z"/><path class="cls-1" d="M76.61,45A2.81,2.81,0,1,1,79,40.74a2.76,2.76,0,0,1,.29,2.12A2.82,2.82,0,0,1,76.61,45Z"/><path d="M76.6,39.71h0a2.44,2.44,0,1,1-2.1,3.65,2.41,2.41,0,0,1-.25-1.84A2.44,2.44,0,0,1,75.38,40a2.48,2.48,0,0,1,1.22-.33m0-.75a3.18,3.18,0,1,0,2.76,1.59A3.17,3.17,0,0,0,76.6,39Z"/><line class="cls-2" x1="49.16" y1="0.47" x2="66.64" y2="36.57"/><line class="cls-2" x1="65.96" y1="36.39" x2="79.1" y2="53.05"/></g></g></svg>