<svg xmlns="http://www.w3.org/2000/svg" viewBox="0 0 79.93 95.09"><defs><style>.cls-1{fill:#fff;}.cls-2{fill:none;stroke:#000;stroke-miterlimit:10;stroke-width:0.75px;}</style></defs><title>milk_7</title><g id="Layer_2" data-name="Layer 2"><g id="Layer_1-2" data-name="Layer 1"><polygon class="cls-1" points="47.28 7.27 52.88 3.64 76.89 19.09 72.19 23.1 47.28 7.27"/><path d="M52.88,4.09l8.24,5.3,15.14,9.75-1.87,1.6-2.23,1.9L48,7.27l1-.62,3.94-2.56m0-.9L46.59,7.28,72.22,23.57l5.3-4.52L52.88,3.19Z"/><polygon class="cls-1" points="0.47 61.97 26 11.93 44.71 5.62 44.93 0.66 71.36 17.43 71.73 22.87 60.11 32.54 32.1 88.53 0.47 61.97"/><path d="M45.27,1.33,71,17.65v.16l.34,4.89L64,28.85l-4,3.35-.12.1-.07.14L50.35,51.22,32,87.94.94,61.88,26.27,12.24,38.88,8l5.71-1.92.48-.17,0-.51.17-4M44.58,0c-.08,1.78-.16,3.56-.23,5.35L25.74,11.62,0,62.07,32.22,89.12,60.41,32.78,72.12,23c-.13-1.94-.27-3.87-.4-5.81L44.58,0Z"/><polygon class="cls-1" points="32.31 88.67 60.71 33.02 71.98 23.64 79.39 39.86 51.44 94.64 32.31 88.67"/><path d="M71.85,24.24,79,39.85,51.25,94.19,45.9,92.52l-13-4.08L47.89,59,61,33.25l10.84-9M72.12,23,60.41,32.78,31.78,88.89l19.85,6.2L79.81,39.87,72.12,23Z"/><path class="cls-2" d="M9.11,44.21c4.38-.85,9.49-1,12.51,1.89,5.74,5.58-.92,17.6,4.29,22.4,2.2,2,6.74,3,16.78-1"/><path class="cls-2" d="M42.69,67.52c2.93-3.43,6.35-6.63,8.54-5.75,3.49,1.41,1,12.06,4.36,13.45,1.56.65,4.45-.64,10.13-7.74"/><path class="cls-1" d="M70.94,35.14a2.71,2.71,0,0,1-1.27-.31A2.8,2.8,0,0,1,71,29.53a2.81,2.81,0,1,1,0,5.61Z"/><path d="M71,29.9h0a2.38,2.38,0,0,1,1.1.27,2.43,2.43,0,0,1-1.11,4.6,2.43,2.43,0,0,1-2.16-3.54A2.43,2.43,0,0,1,71,29.9m0-.75a3.18,3.18,0,0,0-1.45,6,3.25,3.25,0,0,0,1.44.35,3.18,3.18,0,0,0,1.45-6A3.09,3.09,0,0,0,71,29.15Z"/><path class="cls-1" d="M71.8,34.86a2.81,2.81,0,1,1,0-5.61,2.72,2.72,0,0,1,1.28.31,2.8,2.8,0,0,1-1.28,5.3Z"/><path d="M71.8,29.62h0a2.39,2.39,0,0,1,1.11.27,2.43,2.43,0,0,1-1.11,4.6,2.33,2.33,0,0,1-1.1-.27,2.43,2.43,0,0,1,1.1-4.6m0-.75a3.18,3.18,0,0,0-1.44,6,3.09,3.09,0,0,0,1.44.35,3.18,3.18,0,0,0,1.45-6,3.26,3.26,0,0,0-1.45-.35Z"/><line class="cls-2" x1="26.15" y1="11.92" x2="60.41" y2="32.78"/><line class="cls-2" x1="59.74" y1="33" x2="79.81" y2="39.87"/></g></g></svg>