<svg xmlns="http://www.w3.org/2000/svg" viewBox="0 0 175.64 193.45"><defs><style>.cls-1{fill:#fff;stroke:#000;stroke-miterlimit:10;stroke-width:2px;}</style></defs><title>OAT_1</title><g id="Layer_2" data-name="Layer 2"><g id="Layer_1-2" data-name="Layer 1"><path class="cls-1" d="M106.62,104.31c2.8,31.83,32,41.27,25.65,61.05-2.4,7.43-9.08,13.86-16,17.11-1.19.55-11.16,5.08-21,2-18-5.65-24.42-33.28-33.5-72.5-3.65-15.75-3.94-21.81-4-25-.19-9.41-.63-31.47,13-48,6.49-7.89,10.61-7.74,15.35-16.62C92.06,11.26,90.61,1.63,94.28,1c3-.49,6,4.94,11,13.62s8.58,15.08,9.38,23.93a43.3,43.3,0,0,1-2,16.58C108.7,69.51,105.44,90.91,106.62,104.31Z"/><path class="cls-1" d="M100.46,166.87c.92,7.78,2.51,17.36,9.5,21.37,11.88,6.82,31-7.5,33.29-9.26,25.93-19.48,29.4-54.61,30.8-68.89A109.59,109.59,0,0,0,172.34,76,104,104,0,0,0,164,51.92c-6.57-13.18-9.94-12.59-17.86-26.79s-8.73-22.22-13.21-22.4c-4.06-.16-7.45,6.34-10.7,12.57a72.22,72.22,0,0,0-7.54,23.28C110.57,73.63,93.86,111.58,100.46,166.87Z"/><path class="cls-1" d="M44.25,150.41C56,170.8,80.75,187.24,89,182.19c9.59-5.85,2.79-44.07-18.74-67.72-3-3.25-17.89-19.07-40-22-7.13-1-20.62-1.3-22,3-.49,1.53.7,3.19,3,6,6.53,8,9.79,12,15,16C37.09,125.84,36.23,136.54,44.25,150.41Z"/><path class="cls-1" d="M58.29,144.47c11.28,10.11,37.06,36.37,31.78,44.78-5.06,8.05-39.19.63-61.78-18.78-4.33-3.72-19.66-17.7-25-40-2.93-12.21-3.17-28.22,0-29,1.32-.33,2.72,2.13,5,5,6.7,8.44,13.66,11.09,22,16C40.33,128.38,47.14,134.47,58.29,144.47Z"/><path d="M122.25,46.73c1.72-8.49,3.72-16.95,6-25.3.81-2.94,1.54-6.16,3.07-8.83a4.58,4.58,0,0,1,.62-.89,1.71,1.71,0,0,1,.21-.19c.1-.07.08-.06.09,0,.78.18,1.5,2.24,1.79,3A50.18,50.18,0,0,1,136.42,24a21.68,21.68,0,0,0,2.44,7.58,98.31,98.31,0,0,0,6.21,8.71c2.72,3.7,5.48,7.4,7.94,11.29a49.49,49.49,0,0,1,7.28,23.86c.07,1.28,2.07,1.28,2,0a51.82,51.82,0,0,0-6.22-22.65,118.86,118.86,0,0,0-7.69-11.34c-2.44-3.36-5.12-6.6-7.33-10.11a20.89,20.89,0,0,1-2.74-8.16,45.44,45.44,0,0,0-2.68-10.08c-.73-1.76-2.39-4.82-4.67-3.2-1.91,1.35-2.67,4.49-3.34,6.57-1.61,5-2.8,10.13-4.05,15.22q-1.77,7.22-3.25,14.48c-.25,1.26,1.68,1.79,1.93.53Z"/><path d="M128.51,181.58c12.86-6.67,23.82-17.05,30.37-30.05a67.21,67.21,0,0,0,5.37-14.8c.3-1.25-1.63-1.78-1.93-.53a65.59,65.59,0,0,1-27.56,39.36,76.83,76.83,0,0,1-7.26,4.29c-1.15.59-.14,2.32,1,1.73Z"/><path d="M71.52,85.44a58.73,58.73,0,0,1,.11-23.55A25.55,25.55,0,0,1,76.82,51,84.83,84.83,0,0,0,83,43a69.72,69.72,0,0,0,6.29-12.28c.48-1.19-1.45-1.71-1.93-.53a67.65,67.65,0,0,1-5.9,11.52A93.1,93.1,0,0,1,75.11,50c-5,6.19-6.31,14.12-6.63,21.88A60.88,60.88,0,0,0,69.59,86c.24,1.26,2.17.73,1.93-.53Z"/><path d="M59.55,178.5a50.34,50.34,0,0,1-28.14-13.72,93,93,0,0,1-8.7-10.1,87.65,87.65,0,0,1-6.82-10.14A92.12,92.12,0,0,1,8.25,127.2c-.39-1.22-2.33-.7-1.93.53a90.71,90.71,0,0,0,14,27c5.93,7.78,12.33,15.09,21,19.84A52.3,52.3,0,0,0,59,180.43c1.26.18,1.8-1.75.53-1.93Z"/></g></g></svg>