<svg xmlns="http://www.w3.org/2000/svg" viewBox="0 0 66.92 72.25"><defs><style>.cls-1{fill:#fff;stroke:#000;stroke-miterlimit:10;stroke-width:0.5px;}</style></defs><title>oat_1</title><g id="Layer_2" data-name="Layer 2"><g id="Layer_1-2" data-name="Layer 1"><path class="cls-1" d="M42.2,38c3.23,12.23,8.39,15.45,6.35,22.09a12.68,12.68,0,0,1-5.25,7.06,11.83,11.83,0,0,1-7.77,1.63C28.56,67.43,25,57.37,20,43.1c-2-5.73-2.38-8-2.54-9.18a34.58,34.58,0,0,1,2.85-18.48c1.55-3.29,2.41-3.58,3.92-7.43C26,3.42,26,.58,27.46.28,28.64,0,30,1.66,32.14,4.9A58.18,58.18,0,0,1,39.2,20C41.84,30,40.13,30.18,42.2,38Z"/><path class="cls-1" d="M30,59.67c-.6,2.89-1.17,6.5.84,8.76,3.43,3.85,11.93,1,13,.67,11.57-3.85,17-16,19.2-20.9a41.25,41.25,0,0,0,3.46-12.36,39.56,39.56,0,0,0-.12-9.59c-.77-5.48-2-5.67-3.17-11.68s-.47-9-2-9.57-3.42,1.37-5.32,3.21a26.89,26.89,0,0,0-5.46,7.4C44.68,27.63,34.19,39.17,30,59.67Z"/><path class="cls-1" d="M16.51,56.19c4.43,7.67,13.73,13.85,16.84,12,3.61-2.2,1-16.57-7-25.47-1.12-1.22-6.73-7.17-15-8.27C8.59,34,3.51,33.91,3,35.52c-.18.58.27,1.21,1.13,2.26,2.45,3,3.68,4.5,5.64,6C13.82,47,13.5,51,16.51,56.19Z"/><path class="cls-1" d="M21.79,54c4.25,3.8,13.94,13.68,12,16.84S19,71,10.51,63.73a29.71,29.71,0,0,1-9.4-15c-1.1-4.6-1.19-10.61,0-10.91.5-.12,1,.8,1.88,1.88,2.52,3.18,5.14,4.17,8.27,6C15,47.9,17.6,50.19,21.79,54Z"/><path d="M52,19.34a101.55,101.55,0,0,1,6.16-9.73,4.91,4.91,0,0,1,1.24-1.44c.6-.32.71,0,.83.67a5.27,5.27,0,0,1,0,1.19c0,1.39-.33,2.74-.44,4.12a8.86,8.86,0,0,0,.54,3.37c.62,2,1.31,3.95,1.88,6a19.68,19.68,0,0,1,.1,10.79.25.25,0,0,0,.48.13,19.48,19.48,0,0,0,.42-9c-.68-3.27-2.24-6.34-2.84-9.62-.45-2.45.84-4.94.25-7.4-.47-2-2-.22-2.66.62a89.36,89.36,0,0,0-6.43,10.1.25.25,0,0,0,.43.25Z"/><path d="M38.19,68.14a25.75,25.75,0,0,0,18-11.69c.17-.27-.26-.52-.43-.25A25.32,25.32,0,0,1,38.06,67.66c-.32,0-.19.53.13.48Z"/><path d="M22.39,32.85c-1.12-3.65-1.75-8.3-.18-11.91.63-1.46,1.7-2.7,2.44-4.11a26.75,26.75,0,0,0,2.05-5.24.25.25,0,0,0-.48-.13,25.83,25.83,0,0,1-2.31,5.69,25.74,25.74,0,0,0-2.49,4.47c-1.18,3.55-.58,7.86.49,11.36a.25.25,0,0,0,.48-.13Z"/><path d="M22.24,66.87A19.9,19.9,0,0,1,9.66,59.56a36.5,36.5,0,0,1-6.8-12.07c-.1-.3-.59-.17-.49.14A37.34,37.34,0,0,0,9.3,59.91a20.32,20.32,0,0,0,12.8,7.45c.32,0,.45-.44.14-.49Z"/></g></g></svg>