<svg xmlns="http://www.w3.org/2000/svg" viewBox="0 0 73.42 71.6"><defs><style>.cls-1{fill:#fff;stroke:#000;stroke-miterlimit:10;stroke-width:0.5px;}</style></defs><title>oat_3</title><g id="Layer_2" data-name="Layer 2"><g id="Layer_1-2" data-name="Layer 1"><path class="cls-1" d="M47.59,39.1c1,12,12,15.52,9.65,23a11.59,11.59,0,0,1-6,6.43,11.83,11.83,0,0,1-7.9.76C36.55,67.12,34.15,56.73,30.73,42c-1.37-5.92-1.48-8.2-1.5-9.4-.07-3.54-.24-11.83,4.89-18,2.44-3,4-2.91,5.77-6.25C42.12,4.11,41.57.49,43,.26c1.11-.18,2.27,1.86,4.13,5.12s3.23,5.68,3.53,9a16.31,16.31,0,0,1-.74,6.24C48.38,26,47.15,34.06,47.59,39.1Z"/><path class="cls-1" d="M45.27,62.63c.35,2.92.95,6.53,3.58,8,4.47,2.57,11.64-2.82,12.52-3.48C71.12,59.86,72.42,46.65,73,41.27a41.35,41.35,0,0,0-.64-12.82,38.93,38.93,0,0,0-3.16-9c-2.47-5-3.74-4.73-6.71-10.08S59.15,1,57.47.9s-2.8,2.38-4,4.73a27.22,27.22,0,0,0-2.83,8.75C49.08,27.56,42.79,41.83,45.27,62.63Z"/><path class="cls-1" d="M23.75,54.38c2.67,8.45,10.42,16.49,13.86,15.31,4-1.37,4.61-16-1.38-26.39-.82-1.44-5-8.46-12.9-11.33-2.54-.92-7.47-2.15-8.32-.68-.31.52,0,1.23.61,2.45,1.75,3.45,2.63,5.18,4.21,7.09C23.12,44.78,21.93,48.64,23.75,54.38Z"/><path class="cls-1" d="M24.47,54.21c5,2.72,16.72,10.09,15.52,13.63-1.15,3.39-14.28,3.63-24.24-1.51A29.78,29.78,0,0,1,3.13,53.86C1,49.64-.47,43.81.62,43.25c.46-.24,1.18.54,2.26,1.39,3.19,2.51,6,2.88,9.44,4C16.51,49.88,19.53,51.52,24.47,54.21Z"/><path d="M53.35,17.41a95.6,95.6,0,0,1,2.8-11.33,4.39,4.39,0,0,1,.69-1.65c.77-.78,1.21.91,1.4,1.5.42,1.36.55,2.78.92,4.15a8.87,8.87,0,0,0,1.6,3c1.21,1.66,2.46,3.28,3.62,5a19.73,19.73,0,0,1,3.52,10.2c0,.32.52.33.5,0A19.45,19.45,0,0,0,66,19.72c-1.67-2.92-4.08-5.35-5.75-8.24-1.28-2.2-.84-5-2.18-7.22-1.06-1.74-2,.39-2.34,1.41a89.12,89.12,0,0,0-2.89,11.61c-.07.32.42.45.48.13Z"/><path d="M55.76,68.05A25.73,25.73,0,0,0,69.14,51.26a.25.25,0,0,0-.48-.13A25.26,25.26,0,0,1,55.51,67.62c-.29.15,0,.58.25.43Z"/><path d="M34.27,32c-.72-3.83-.81-8.67,1.31-12.09.8-1.29,1.93-2.37,2.78-3.63a26.21,26.21,0,0,0,2.58-4.92c.12-.3-.36-.43-.48-.14a24.91,24.91,0,0,1-2.89,5.32c-1,1.47-2.33,2.68-3.07,4.36-1.5,3.39-1.38,7.67-.71,11.23.06.32.54.18.48-.13Z"/><path d="M27.88,66.68C18,67.55,9.45,60.27,4.55,52.29a.25.25,0,0,0-.43.25c5,8.12,13.69,15.53,23.76,14.64.31,0,.32-.53,0-.5Z"/></g></g></svg>